<svg xmlns="http://www.w3.org/2000/svg" viewBox="0 0 1024 1024"><g fill="#fb7069"><polyline points="463.022335 60.4129794 463.022335 0 463.022335 0 549.326591 0 549.326591 60.4129794"></polyline><path d="M814.315546,147.440272 C728.398827,75.8877091 620.320152,36.032027 506.174463,36.032027 C240.087254,36.032027 24.3809524,251.738329 24.3809524,517.825537 C24.3809524,617.916673 54.9968052,713.481982 111.178718,793.762851 L151.129462,765.804643 C100.637129,693.653871 73.1428571,607.832365 73.1428571,517.825537 C73.1428571,278.668785 267.017711,84.7939317 506.174463,84.7939317 C608.8115,84.7939317 705.876055,120.587987 783.110443,184.909791 L814.315546,147.440272 Z M200.657702,890.380788 C286.175634,960.588477 393.211601,999.619048 506.174463,999.619048 C772.261671,999.619048 987.967973,783.912746 987.967973,517.825537 C987.967973,404.764994 948.869593,297.642842 878.551177,212.091435 L840.881088,243.054118 C904.092377,319.95879 939.206068,416.163649 939.206068,517.825537 C939.206068,756.982289 745.331215,950.857143 506.174463,950.857143 C404.600355,950.857143 308.472955,915.804371 231.598493,852.692716 L200.657702,890.380788 Z"></path><polygon points="834.130636 300.338812 834.130636 202.815002 931.654446 202.815002"></polygon><polygon transform="translate(117.805310, 772.423093) scale(-1, -1) translate(-117.805310, -772.423093) " points="69.043405 821.184998 69.043405 723.661188 166.567214 723.661188"></polygon><polygon points="581.516755 460.648968 660.659081 460.648968 660.659081 411.887063 601.714597 411.887063 506.779916 316.952381 341.333333 316.952381 341.333333 365.714286 486.582073 365.714286"></polygon><polygon points="341.333333 536.380952 479.420143 536.380952 479.420143 487.619048 341.333333 487.619048"></polygon><path d="M453.528866,672.957438 L436.28893,680.098453 L443.429945,672.957438 L453.528866,672.957438 Z M463.627788,721.719343 L341.333333,721.719343 L341.333333,672.957438 L443.429945,672.957438 L555.625478,560.761905 L738.332912,560.761905 L738.332912,609.52381 L575.823321,609.52381 L463.627788,721.719343 Z"></path></g></svg>
