<?xml version="1.0" encoding="utf-8"?><!-- Generator: Adobe Illustrator 21.0.0, SVG Export Plug-In . SVG Version: 6.00 Build 0)  --><svg version="1.1" id="图层_1" xmlns="http://www.w3.org/2000/svg" xmlns:xlink="http://www.w3.org/1999/xlink" x="0px" y="0px" viewBox="0 0 20 20" style="enable-background:new 0 0 20 20;" xml:space="preserve"><style type="text/css">.st0{fill:#F29111;} 	.st1{opacity:0.8;fill:#F29111;} 	.st2{opacity:0.5;fill:#F29111;} 	.st3{fill:none;} 	.st4{fill:#00758F;} 	.st5{opacity:0.5;fill:#00758F;} 	.st6{fill:#942645;} 	.st7{fill:#FFFFFF;} 	.st8{fill:#BD1E21;} 	.st9{fill:#F80000;} 	.st10{fill:#8AADBF;} 	.st11{fill:#3A913F;}</style><g><g><path class="st6" d="M16.242,13.333c-0.011,0.023,0.006-0.015,0.025-0.051c1.602-3.004,1.108-6.463-1.269-8.904	c-0.057-0.059-0.093-0.153-0.108-0.236c-0.03-0.163-0.038-0.33-0.056-0.496c-0.154-1.441-0.94-2.477-2.167-3.155	c-0.944-0.522-1.997-0.526-3.042-0.334C8.685,0.33,7.867,0.795,7.07,1.295C6.66,1.552,6.324,1.879,6.185,2.366	C6.173,2.41,6.139,2.459,6.102,2.481C5.61,2.768,5.522,3.257,5.441,3.758C5.419,3.891,5.353,4.047,5.256,4.135	c-3.005,2.702-3.291,7.378-0.629,10.427c0.229,0.262,0.565,0.47,0.69,0.77c0.129,0.311,0.063,0.704,0.079,1.062	c0.009,0.198,0.108,0.318,0.289,0.394c0.291,0.122,0.582,0.246,0.863,0.388c0.562,0.284,1.138,0.505,1.789,0.47	C8.359,17.718,8.38,17.78,8.4,17.842c0.175,0.554,0.356,1.107,0.523,1.663c0.05,0.166,0.144,0.236,0.307,0.275	c0.769,0.186,1.548,0.207,2.331,0.148c0.306-0.023,0.616-0.046,0.913-0.119c0.362-0.089,0.433-0.222,0.416-0.59	c-0.004-0.082-0.001-0.164-0.001-0.245c0.089-0.024,0.16-0.044,0.232-0.063c0.464-0.116,0.579-0.271,0.512-0.746	c-0.042-0.296-0.12-0.586-0.17-0.88c-0.031-0.183-0.042-0.365,0.198-0.442c0.056-0.018,0.089-0.109,0.131-0.168	c0.036-0.051,0.06-0.141,0.104-0.151c0.249-0.058,0.501-0.119,0.755-0.132c0.093-0.005,0.191,0.123,0.29,0.185	c0.041,0.025,0.091,0.049,0.138,0.05c0.38,0.003,0.761,0.016,1.14-0.005c0.284-0.016,0.472-0.208,0.574-0.459	c0.086-0.213,0.154-0.439,0.19-0.666c0.086-0.544-0.142-1.03-0.336-1.514C16.56,13.771,16.401,13.586,16.242,13.333z M14.968,4.912c0,0,0.686,0.648,1.208,1.74c0.519,1.085,0.793,2.083,0.614,3.388c-0.179,1.304-0.304,1.894-0.554,2.358	c-0.25,0.464-0.429,0.893-0.429,0.893s-0.357,0.036-0.768,0.179c-0.411,0.143-0.661,0.25-0.661,0.25s0.404-1.067,0.726-1.996	c0.322-0.929,0.391-1.434,0.284-1.719s-1.063-0.983-1.063-0.983s-0.277-0.161-0.268-0.348c0.01-0.214,0.329-0.523,0.634-1.563	C14.969,6.163,14.968,4.912,14.968,4.912z M8.764,0.959C8.58,1.07,8.39,1.173,8.213,1.294C7.86,1.536,7.516,1.791,7.165,2.036	C6.983,2.163,6.794,2.281,6.592,2.378C6.688,1.8,8.122,0.839,8.764,0.959z M7.258,2.506c0.16-0.033,0.238,0.013,0.227,0.211	C7.008,2.816,6.559,2.959,6.257,3.366c-0.292,0.393-0.292,0.863-0.3,1.329C5.662,3.43,6.111,2.743,7.258,2.506z M6.937,9.386	l-1.232,0.705c0,0-1.139,0.63-1.323,0.91c-0.184,0.28,0.108,0.891,0.429,1.763C5.132,13.635,5.49,14.99,5.49,14.99	s-0.408-0.346-0.703-0.708C4.44,13.855,4.216,13.57,3.958,13.03c-0.327-0.683-0.586-1.401-0.683-2.172	c-0.098-0.771-0.112-1.654,0.077-2.547c0.19-0.893,0.492-1.574,1.044-2.488C4.948,4.91,5.531,4.432,5.531,4.432l0.021,0.39	c0,0-0.183,0.127-0.274,0.48C5.188,5.656,5.261,6.515,5.677,7.099c0.389,0.546,0.998,0.654,0.998,0.654S6.734,8.086,6.791,8.3	S7.138,8.809,7.13,9.069S6.937,9.386,6.937,9.386z M7.391,8.93c-0.167-0.359-0.268-0.748-0.4-1.123	C6.923,7.612,6.971,7.458,7.117,7.31c0.076-0.076,0.105-0.199,0.155-0.3C7.243,6.986,7.214,6.962,7.184,6.938	C7.086,6.99,6.978,7.03,6.891,7.097C6.687,7.257,6.48,7.25,6.263,7.136C5.767,6.877,5.445,6.052,5.652,5.533	C5.705,5.399,5.796,5.266,5.903,5.17c0.453-0.407,0.992-0.226,1.159,0.38c0.078,0.282,0.109,0.296,0.449,0.224	c0.21-0.044,0.283-0.154,0.242-0.376C7.686,5.024,7.61,4.645,7.609,4.269C7.608,3.958,7.734,3.65,7.761,3.337	C7.784,3.06,7.744,2.778,7.742,2.499c-0.001-0.1-0.008-0.23,0.047-0.295c0.241-0.282,0.477-0.582,0.767-0.808	c0.51-0.399,1.047-0.809,1.716-0.862c1.381-0.109,2.582,0.272,3.437,1.445c0.063,0.087,0.13,0.171,0.193,0.255	c-0.172,0.027-0.343,0.034-0.5,0.085c-0.182,0.06-0.26,0.211-0.258,0.412c0.722-0.217,1.286,0.12,1.387,0.852	c0.187,1.36,0.152,2.704-0.384,3.999c-0.476,1.149-1.205,1.999-2.508,2.21c-0.762,0.123-1.398-0.158-1.945-0.637	C9.353,8.856,9.081,8.48,8.779,8.138c-0.058-0.066-0.11-0.136-0.189-0.184c0.213,0.809,0.829,1.298,1.425,1.795	c-0.243-0.006-0.506-0.052-0.708,0.17c-0.019,0.021-0.06,0.026-0.091,0.029C8.395,10.026,7.737,9.675,7.391,8.93z M12.373,10.765	l-0.088-0.264c0,0,0.123-0.026,0.22-0.106s0.519-0.361,0.651-0.396c0.132-0.035,0.308-0.106,0.361,0.141	c0.053,0.246,0.132,0.492,0.141,0.721c0.009,0.229,0,0.519-0.097,0.554c-0.097,0.035-0.369,0.009-0.58-0.018	c-0.211-0.026-0.572-0.141-0.572-0.141l-0.026-0.369l0.396-0.114L12.373,10.765z M11.143,10.213	c0.399-0.055,0.802-0.11,1.189-0.164C11.959,10.474,11.666,10.522,11.143,10.213z M12.127,10.932	c-0.007,0.171-0.099,0.284-0.185,0.297s-0.244-0.013-0.244-0.013l-0.059-0.495c0,0,0.086-0.099,0.231-0.086	C12.014,10.648,12.133,10.76,12.127,10.932z M11.441,10.835l-0.484,0.141l0.475,0.141l-0.009,0.308c0,0-0.158,0.132-0.404,0.317	c-0.246,0.185-0.73,0.44-0.941,0.457c-0.211,0.018-0.255-0.132-0.299-0.229c-0.044-0.097-0.185-0.484-0.255-1.003	c-0.07-0.519,0.114-0.774,0.246-0.835c0.132-0.062,0.396,0.053,0.624,0.132c0.229,0.079,0.651,0.281,0.756,0.369	s0.308,0.114,0.308,0.114L11.441,10.835z M12.13,13.724c-0.016,0.02-0.033,0.039-0.049,0.059c-0.274-0.109-0.552-0.209-0.821-0.33	c-0.287-0.129-0.561-0.287-0.85-0.412c-0.209-0.09-0.216-0.229-0.094-0.362c0.255-0.277,0.534-0.531,0.832-0.822	C11.627,12.456,11.851,13.105,12.13,13.724z M9.196,10.188c-0.023,0.119-0.046,0.241-0.069,0.362	c-0.47-0.027-0.898-0.263-0.93-0.502C8.528,10.095,8.845,10.139,9.196,10.188z M10.884,19.532c-0.503-0.028-1.003-0.129-1.5-0.219	c-0.088-0.016-0.207-0.122-0.228-0.207c-0.247-1.016-0.49-2.033-0.707-3.055c-0.095-0.445-0.128-0.903-0.196-1.412	c0.535-0.07,1.034-0.175,1.537-0.192c0.737-0.026,1.476,0.011,2.214,0.021c0.163,0.002,0.229,0.079,0.238,0.247	c0.06,1.105,0.126,2.209,0.194,3.313c0.026,0.43,0.059,0.86,0.09,1.304C11.995,19.514,11.438,19.563,10.884,19.532z M12.466,13.668c-0.325-0.668-0.65-1.336-0.991-2.038c0.386-0.303,0.792-0.214,1.244,0.138c-0.052,0.6-0.108,1.247-0.164,1.894	C12.525,13.664,12.496,13.666,12.466,13.668z M13.126,18.497c-0.125,0.053-0.268,0.062-0.453,0.1	c-0.022-0.499-0.057-0.946-0.057-1.393c0-0.289,0.276-0.142,0.45-0.267c0.078,0.482,0.157,0.92,0.212,1.361	C13.285,18.359,13.195,18.468,13.126,18.497z M12.737,13.684c0.061-0.605,0.11-1.138,0.172-1.671	c0.015-0.131-0.043-0.319,0.189-0.343c0.236-0.024,0.573,0.121,0.618,0.284c0.011,0.041-0.003,0.1-0.025,0.138	C13.384,12.61,13.073,13.126,12.737,13.684z M13.761,16.28c-0.094-0.641-0.183-1.244-0.272-1.844	c0.348-0.126,0.46-0.101,0.53,0.217c0.099,0.45,0.171,0.911,0.189,1.37C14.219,16.279,13.928,16.19,13.761,16.28z M15.86,16.379	c-0.224,0.031-0.457,0.005-0.685,0.005c-0.005-0.025-0.011-0.049-0.016-0.074c0.239-0.055,0.477-0.109,0.716-0.164	c-0.443-0.178-0.904-0.024-1.364-0.079c-0.058-0.453-0.111-0.896-0.173-1.338c-0.063-0.444-0.068-0.445,0.361-0.622	c0.313-0.129,0.628-0.255,0.945-0.377c0.222-0.085,0.54,0.039,0.629,0.313c0.152,0.469,0.295,0.952,0.349,1.439	C16.677,15.988,16.368,16.31,15.86,16.379z"/><path class="st6" d="M12.141,7.193c0.597,0.006,1.113-0.244,1.592-0.571c0.221-0.151,0.222-0.591,0.04-0.784	c-0.506-0.538-1.022-1.071-1.276-1.791c-0.013-0.038-0.073-0.06-0.153-0.123c-0.011,0.44,0.118,0.779,0.328,1.08	c0.237,0.34,0.511,0.653,0.765,0.981c0.158,0.204,0.15,0.452-0.032,0.538c-0.299,0.141-0.603,0.284-0.918,0.379	c-0.398,0.12-0.523,0.034-0.659-0.354c-0.007-0.02-0.03-0.036-0.059-0.068c-0.134,0.195-0.124,0.4-0.005,0.557	C11.837,7.132,12.012,7.192,12.141,7.193z"/><path class="st6" d="M11.77,8.307c-0.435-0.027-0.832-0.15-1.077-0.564c-0.029-0.049-0.133-0.052-0.203-0.077	c0.359,0.611,0.727,1.171,1.527,1.056c0.332-0.048,0.704,0.003,0.963-0.41C12.533,8.312,12.15,8.331,11.77,8.307z"/><path class="st6" d="M12.687,7.888c-0.011-0.133-0.023-0.269-0.032-0.376c-0.665-0.077-1.283-0.148-1.879-0.217	C10.935,7.762,12.085,8.019,12.687,7.888z"/><path class="st6" d="M10.454,4.811c-0.083-0.003-0.168,0.038-0.253,0.06c0.051,0.092,0.09,0.252,0.154,0.263	c0.255,0.044,0.531,0.098,0.774,0.042c0.35-0.082,0.389-0.379,0.153-0.648c-0.134-0.153-0.233-0.337-0.34-0.513	c-0.053-0.087-0.088-0.186-0.153-0.328c-0.034,0.343-0.034,0.343,0.319,1.072C10.892,4.936,10.67,4.818,10.454,4.811z"/><path class="st6" d="M10.413,2.831c0.042-0.276-0.081-0.407-0.362-0.416C9.599,2.401,9.003,2.953,8.989,3.408	C8.987,3.48,9.034,3.554,9.059,3.626C9.361,3.045,9.763,2.719,10.413,2.831z"/><path class="st6" d="M12.838,7.724c0.002,0.048,0.013,0.096,0.019,0.141c0.521,0.042,1.095-0.391,1.222-0.897	c-0.397,0.167-0.805,0.339-1.243,0.523C12.837,7.543,12.835,7.633,12.838,7.724z"/><path class="st6" d="M14.393,4.805c0.199-0.181-0.025-0.289-0.069-0.426c-0.033-0.101-0.092-0.194-0.141-0.29	c-0.066-0.131-0.134-0.261-0.201-0.391c-0.024,0.01-0.049,0.02-0.073,0.029c0.075,0.281,0.149,0.562,0.229,0.864	c-0.236,0.032-0.452,0.061-0.732,0.098c0.077,0.124,0.112,0.23,0.184,0.286C13.753,5.102,14.186,4.995,14.393,4.805z"/><path class="st6" d="M6.491,5.321C6.216,5.25,6.037,5.374,5.971,5.681C6.048,5.643,6.126,5.604,6.23,5.553	C6.13,6.122,6.15,6.287,6.33,6.481c0.017-0.196,0.022-0.393,0.057-0.586C6.399,5.83,6.48,5.739,6.538,5.732	c0.058-0.007,0.144,0.065,0.187,0.124c0.073,0.1,0.123,0.217,0.2,0.36C7.042,5.808,6.828,5.409,6.491,5.321z"/><path class="st6" d="M14.743,14.744c0.281-0.146,0.563-0.292,0.902-0.467C15.098,14.33,14.865,14.442,14.743,14.744z"/><path class="st6" d="M14.934,15.425c0.325,0,0.65,0,0.975,0c0.002-0.015,0.003-0.031,0.005-0.046	c-0.318-0.023-0.637-0.047-0.955-0.07C14.95,15.348,14.942,15.386,14.934,15.425z"/><path class="st6" d="M14.942,14.899c0.002,0.026,0.004,0.051,0.006,0.077c0.286-0.02,0.572-0.04,0.858-0.061	C15.513,14.812,15.223,14.753,14.942,14.899z"/><path class="st6" d="M12.222,12.66c0.003,0.05,0.079,0.114,0.137,0.135c0.025,0.009,0.116-0.073,0.119-0.117	c0.003-0.056-0.053-0.115-0.108-0.217C12.295,12.555,12.218,12.61,12.222,12.66z"/><path class="st6" d="M12.215,11.865c-0.056,0.017-0.121,0.075-0.136,0.129c-0.01,0.036,0.059,0.094,0.123,0.186	c0.064-0.094,0.125-0.146,0.128-0.2C12.332,11.94,12.242,11.857,12.215,11.865z"/></g></g></svg>