<?xml version="1.0" encoding="utf-8"?>
<!-- Generator: Adobe Illustrator 21.0.0, SVG Export Plug-In . SVG Version: 6.00 Build 0)  -->
<svg version="1.1" id="图层_1" xmlns="http://www.w3.org/2000/svg" xmlns:xlink="http://www.w3.org/1999/xlink" x="0px" y="0px"
	 viewBox="0 0 1024 1024" style="enable-background:new 0 0 1024 1024;" xml:space="preserve">
<style type="text/css">
	.st0{fill:#46A1FD;}
</style>
<g>
	<path class="st0" d="M605.3,275c13.6-12.7,27-25.2,40.3-37.8c17.8-16.7,35.4-33.6,53.2-50.3c15.5-14.7,31.1-29.3,46.7-43.9
		c21-19.7,42.1-39.3,63.1-58.9c1.1-1,2.1-2.2,4.1-4.4c-16.1,0-30.7,0-45.3,0c-11.8,0-19.5-6.4-24.1-16.5
		c-4.7-10.4-3.3-20.7,3.8-29.7c6.4-8.2,15.2-11.4,25.5-11.3c26.9,0.1,53.8,0.1,80.6,0.1c45.6,0,59.6,11.1,59.6,54.6
		c0,29.9,0.4,59.8,0.4,89.7c0,16.6-14.4,29-29.9,28.2c-15.6-0.8-27.5-12.4-27.6-28.4c0-14.5,0-29,0-44.5c-4.3,3.4-8.1,6.1-11.5,9.3
		c-12.4,11.7-24.5,23.6-36.8,35.3c-23.6,22.4-47.3,44.6-71,66.9c-14.6,13.7-29.2,27.3-43.7,40.9c-16.8,15.8-32.8,32.4-50.4,47.2
		c-22.6,19.1-54.1,18.2-76-2.1c-23.9-22.1-47.4-44.6-71.1-66.8c-15.6-14.6-31.3-29-47.1-43.5c-18.4,17.4-36.9,35.1-55.5,52.6
		c-22.6,21.3-45.4,42.6-68.1,63.9c-14.7,13.8-29.6,27.5-44.2,41.5c-15.8,15.1-31.4,30.5-47.2,45.7c-6,5.8-11.9,11.8-18.5,16.9
		c-9.4,7.4-20.1,8.5-31.1,3.5c-10.4-4.7-15.7-12.7-16.3-24.3c-0.7-13,4.9-22,15.1-29.9c7.2-5.6,12.7-13.5,19.3-20.1
		c7.4-7.4,15.2-14.4,22.8-21.5c24.5-23.1,49-46.3,73.6-69.3c13.5-12.7,27.2-25.3,40.8-38c21.4-20,42.8-39.9,64.1-59.9
		c12-11.2,26.1-18.2,42.4-18.8c16.2-0.6,31.4,3.7,43.7,15.1c17.1,15.8,33.8,31.9,50.7,47.8c15.1,14.2,30.1,28.3,45.2,42.4
		C591.4,262.7,598,268.5,605.3,275L605.3,275z"/>
	<g>
		<path class="st0" d="M913.8,453.4c0,46.7-0.9,93.4,0.4,140.1c0.6,19.2-14.7,33.7-32,31.9c-11.9-1.2-22.9-8.1-26.3-19.6
			c-0.7-2.4-1-5-1-7.4c0-96.7,0-193.4-0.1-290c0-20,17.9-31.2,36.1-27.6c16.8,3.4,23.1,16.7,23,29.7
			C913.6,358.1,913.8,405.7,913.8,453.4L913.8,453.4z"/>
		<path class="st0" d="M625.7,506.1c0-31.3,0.3-62.6-0.1-93.9c-0.2-15.5,12.3-25.3,22.9-26.7c18.8-2.5,31.2,5.4,34.7,20.5
			c0.7,3.1,1.3,6.3,1.3,9.5c0.1,60,0,120.1,0.1,180.1c0,13-5.2,23.1-17.6,27.7c-17.3,6.5-41.7-1-41.4-25.4
			C625.9,567.3,625.7,536.7,625.7,506.1L625.7,506.1z"/>
		<path class="st0" d="M454.9,519.5c0,26.4-0.4,52.8,0.2,79.2c0.3,11.6-8,23.2-19.6,25.7c-15.2,3.2-30-0.1-36.5-14.6
			c-1.9-4.2-2.8-9.3-2.8-14c-0.2-50.9-0.6-101.9,0.1-152.8c0.3-18.3,7.5-25,23.5-29.2c12.9-3.4,28.1,4.2,33.6,16.3
			c1.1,2.4,1.5,5.3,1.5,8C455,465.2,454.9,492.3,454.9,519.5L454.9,519.5z"/>
		<path class="st0" d="M225.3,557.3c0,14.2,0,28.5,0,42.7c-0.1,13.6-12,25.4-25.7,25.5c-18.7,0.1-27.5-5.5-32.2-20.7
			c-0.7-2.2-1-4.4-1-6.7c-0.1-27.1,0-54.2-0.1-81.3c0-18.2,13.3-28.5,29.4-28.6c16.7-0.1,29.9,11.1,29.6,28.4
			C225.2,530.2,225.3,543.8,225.3,557.3L225.3,557.3z"/>
	</g>
	<path class="st0" d="M948.3,776.7C910.1,805,725.1,939.8,691.9,960.9c-38.9,24.8-72.9,62.3-157.3,25.8
		C507,974.8,396.9,923.5,361.1,907c-37-17.1-52.4-13.3-79.6,5.7l-49.2,35.1L123.4,731.9c0,0,105.5-54.8,153.9-76.4
		c76.4-34,113.6-8.7,159,16.7s114.9,57.1,178.2,63.8c92.4,9.8,170.7-36,170.7,16.6c0,41.8-123.9,83.6-240.4,77.2
		C474.3,826,422.1,806,422.1,806s112.6,60.3,250.4,38.5c58-9.2,84-27.4,149.4-70.5C895.7,725.2,986.5,748.4,948.3,776.7z"/>
</g>
</svg>
