<svg xmlns="http://www.w3.org/2000/svg" viewBox="0 0 1024 1024"><g><g><path fill="#46A1FD" d="M512,998.6c-65.7,0-129.4-12.9-189.4-38.2c-57.9-24.5-110-59.6-154.7-104.3S88.2,759.3,63.7,701.4	c-25.4-60-38.2-123.7-38.2-189.4s12.9-129.4,38.2-189.4c24.5-57.9,59.6-110,104.3-154.7s96.7-79.8,154.7-104.3	c60-25.4,123.7-38.2,189.4-38.2s129.4,12.9,189.4,38.2c57.9,24.5,110,59.6,154.7,104.3c44.7,44.7,79.8,96.7,104.3,154.7	c25.4,60,38.2,123.7,38.2,189.4s-12.9,129.4-38.2,189.4c-24.5,57.9-59.6,110-104.3,154.7c-44.7,44.7-96.7,79.8-154.7,104.3	C641.4,985.7,577.7,998.6,512,998.6z M512,70.4C268.5,70.4,70.4,268.5,70.4,512c0,243.5,198.1,441.6,441.6,441.6	S953.6,755.5,953.6,512C953.6,268.5,755.5,70.4,512,70.4z"/></g><g><path fill="#46A1FD" d="M512,895.8c-51.8,0-102.1-10.2-149.4-30.2c-45.7-19.3-86.7-47-122-82.2c-35.2-35.2-62.9-76.3-82.2-122	c-20-47.3-30.2-97.6-30.2-149.4s10.1-102.1,30.2-149.4c19.3-45.7,47-86.7,82.2-122s76.3-62.9,122-82.2	c47.3-20,97.6-30.2,149.4-30.2s102.1,10.1,149.4,30.2c45.7,19.3,86.7,47,122,82.2c35.2,35.2,62.9,76.3,82.2,122	c20,47.3,30.2,97.6,30.2,149.4s-10.1,102.1-30.2,149.4c-19.3,45.7-47,86.7-82.2,122c-35.2,35.2-76.3,62.9-122,82.2	C614.1,885.6,563.8,895.8,512,895.8z M512,173.2c-186.8,0-338.8,152-338.8,338.8s152,338.8,338.8,338.8	c186.8,0,338.8-152,338.8-338.8S698.8,173.2,512,173.2z"/></g><g><g><path fill="#46A1FD" d="M670.6,329.9l-47,47L423.9,576.6v-41.1v-91.1h-91.1H227.1v91.1h105.7v261.4l91.1-94l0,0l0,0l155.7-155.7	v237.9l381.8-381.8c-8.8-32.3-20.6-64.6-32.3-94L670.6,567.8C670.6,567.8,670.6,329.9,670.6,329.9z"/></g></g></g></svg>