<svg xmlns="http://www.w3.org/2000/svg" viewBox="0 0 1024 1024"><g fill="#34d1cb" transform="translate(0.000000, 26.000000)"><path d="M25.8348335,343.439643 L51.2,299.235556 L51.2,358.4 L0,307.2 L46.6298467,307.2 L51.2,307.2 L977.370153,307.2 L1024,307.2 L972.8,358.4 L972.8,299.235556 L998.165166,343.439643 L512,59.3031127 L25.8348335,343.439643 Z M0,299.235556 L512,0 L1024,299.235556 L1024,358.4 L0,358.4 L0,299.235556 Z"></path><path d="M159.507692,358.4 L159.507692,921.6 L876.307692,921.6 L876.307692,358.4 L159.507692,358.4 Z M108.307692,307.2 L927.507692,307.2 L927.507692,972.8 L108.307692,972.8 L108.307692,307.2 Z"></path><rect x="159.507692" y="498.215385" width="768" height="51.2"></rect><rect x="159.507692" y="703.015385" width="768" height="51.2"></rect><rect x="0" y="921.6" width="1024" height="51.2"></rect></g></svg>
