<?xml version="1.0" encoding="utf-8"?><!-- Generator: Adobe Illustrator 21.0.0, SVG Export Plug-In . SVG Version: 6.00 Build 0)  --><svg version="1.1" id="图层_1" xmlns="http://www.w3.org/2000/svg" xmlns:xlink="http://www.w3.org/1999/xlink" x="0px" y="0px" viewBox="0 0 20 20" style="enable-background:new 0 0 20 20;" xml:space="preserve"><style type="text/css">.st0{fill:#F29111;} 	.st1{opacity:0.8;fill:#F29111;} 	.st2{opacity:0.5;fill:#F29111;} 	.st3{fill:none;} 	.st4{fill:#00758F;} 	.st5{opacity:0.5;fill:#00758F;} 	.st6{fill:#942645;} 	.st7{fill:#FFFFFF;} 	.st8{fill:#BD1E21;} 	.st9{fill:#F80000;} 	.st10{fill:#8AADBF;} 	.st11{fill:#3A913F;}</style><g><g><g><circle class="st11" cx="1.272" cy="5.24" r="1.261"/></g><g><circle class="st11" cx="18.408" cy="17.706" r="1.58"/></g><g><circle class="st11" cx="17.802" cy="4.925" r="1.06"/></g><g><circle class="st11" cx="2.561" cy="16.431" r="0.945"/></g><g><circle class="st11" cx="9.188" cy="1.449" r="0.735"/></g><g><g><g><path class="st11" d="M13.651,12.676c0,0.06-0.024,0.101-0.071,0.124L9.886,14.79H9.868c-0.012,0.012-0.03,0.018-0.054,0.018	c-0.024,0-0.042-0.006-0.054-0.018H9.744L6.05,12.801c-0.048-0.024-0.072-0.065-0.072-0.124v-4.28	c0-0.011,0.006-0.024,0.018-0.036V8.342l0.036-0.036L6.05,8.289L9.744,6.3c0.048-0.011,0.095-0.011,0.142,0l3.694,1.989	l0.054,0.054v0.018l0.017,0.035V12.676z M6.448,12.485l3.02,1.636v-3.492l-3.02-1.636V12.485z M6.683,8.483l3.097,1.67	l3.097-1.67L9.78,6.812L6.683,8.483z M13.134,12.473v-3.51l-3.036,1.645v3.51L13.134,12.473z M13.367,12.588"/></g></g></g><g><path class="st11" d="M4.481,15.095c-0.095,0-0.191-0.04-0.259-0.117c-0.125-0.143-0.111-0.36,0.032-0.485l1.404-1.232	c0.143-0.125,0.36-0.111,0.485,0.032c0.125,0.143,0.111,0.36-0.032,0.485l-1.404,1.232C4.642,15.066,4.561,15.095,4.481,15.095z"	/></g><g><path class="st11" d="M5.397,8.076c-0.057,0-0.115-0.014-0.169-0.045L3.051,6.799c-0.165-0.093-0.223-0.303-0.13-0.468	c0.093-0.165,0.303-0.223,0.469-0.13l2.177,1.232c0.165,0.093,0.223,0.303,0.13,0.468C5.633,8.013,5.517,8.076,5.397,8.076z"/></g><g><path class="st11" d="M9.436,5.612c-0.185,0-0.338-0.147-0.343-0.333L9.036,3.388C9.03,3.198,9.179,3.04,9.369,3.034	c0.187-0.006,0.348,0.143,0.354,0.333L9.78,5.258c0.006,0.19-0.143,0.348-0.333,0.354C9.443,5.612,9.44,5.612,9.436,5.612z"/></g><g><path class="st11" d="M14.393,7.646c-0.109,0-0.216-0.052-0.283-0.148c-0.108-0.156-0.07-0.37,0.086-0.478l1.69-1.175	c0.156-0.108,0.37-0.07,0.479,0.086c0.108,0.156,0.07,0.37-0.086,0.478l-1.69,1.175C14.529,7.626,14.461,7.646,14.393,7.646z"/></g><g><path class="st11" d="M16.541,16.47c-0.074,0-0.149-0.024-0.212-0.074l-2.693-2.12c-0.149-0.117-0.175-0.334-0.058-0.483	c0.118-0.149,0.334-0.175,0.483-0.058l2.693,2.12c0.149,0.117,0.175,0.334,0.058,0.483C16.744,16.425,16.643,16.47,16.541,16.47z	"/></g></g></g></svg>