<?xml version="1.0" encoding="utf-8"?>
<!-- Generator: Adobe Illustrator 21.0.0, SVG Export Plug-In . SVG Version: 6.00 Build 0)  -->
<svg version="1.1" id="图层_1" xmlns="http://www.w3.org/2000/svg" xmlns:xlink="http://www.w3.org/1999/xlink" x="0px" y="0px"
	 viewBox="0 0 60 60" style="enable-background:new 0 0 60 60;" xml:space="preserve">
<style type="text/css">
	.st0{fill:#46A1FD;}
	.st1{fill:#FFFFFF;}
</style>
<circle class="st0" cx="30" cy="30" r="30"/>
<g>
	<path class="st1" d="M19.1,27.4c0.3,0.2,0.7,0.1,1-0.1c0.2-0.1,0.4-0.3,0.6-0.5c0.5-0.5,1-1,1.5-1.5c0.4-0.4,0.9-0.9,1.4-1.3
		c0.7-0.7,1.5-1.4,2.2-2.1c0.6-0.6,1.2-1.1,1.8-1.7c0.5,0.5,1,0.9,1.5,1.4c0.8,0.8,1.5,1.5,2.3,2.2c0.7,0.7,1.8,0.7,2.5,0.1
		c0.5-0.5,1.1-1,1.6-1.5c0.5-0.4,0.9-0.9,1.4-1.3c0.8-0.8,1.5-1.5,2.3-2.2c0.4-0.3,0.8-0.7,1.2-1.1c0.1-0.1,0.3-0.2,0.4-0.3
		c0,0.5,0,0.9,0,1.4s0.4,0.9,0.9,0.9s1-0.4,1-0.9c0-1,0-1.9,0-2.9c0-1.4-0.4-1.8-1.9-1.8c-0.9,0-1.7,0-2.6,0c-0.3,0-0.6,0.1-0.8,0.4
		c-0.2,0.3-0.3,0.7-0.1,1c0.2,0.3,0.4,0.5,0.8,0.5c0.5,0,1,0,1.5,0l-0.1,0.1c-0.6,0.6-1.3,1.3-2,1.9c-0.5,0.5-1,0.9-1.5,1.4
		c-0.6,0.5-1.1,1.1-1.7,1.6c-0.4,0.4-0.9,0.8-1.3,1.2l-0.2,0.2l-0.7-0.7c0,0,0,0,0,0c-0.5-0.5-1-0.9-1.5-1.4s-1-1-1.6-1.5
		c-0.4-0.4-0.9-0.5-1.4-0.5c-0.6,0-1,0.2-1.4,0.6c-0.7,0.6-1.4,1.3-2.1,1.9c-0.4,0.4-0.9,0.8-1.3,1.2c-0.8,0.7-1.6,1.5-2.4,2.2
		c-0.2,0.2-0.5,0.5-0.7,0.7s-0.4,0.4-0.6,0.6c-0.3,0.3-0.5,0.6-0.5,1C18.6,27,18.8,27.2,19.1,27.4z"/>
	<path class="st1" d="M41.1,23.4c0,3.1,0,6.3,0,9.4c0,0,0,0.1,0,0.2c0.2,0.3,0.5,0.6,0.9,0.6c0.5,0.1,1-0.4,1-1c0-1.5,0-3,0-4.5
		s0-3.1,0-4.6c0.1-0.5-0.2-0.9-0.7-1C41.7,22.4,41.1,22.8,41.1,23.4z"/>
	<path class="st1" d="M34.4,25.9c-0.3,0.1-0.7,0.4-0.7,0.9c0,1,0,2,0,3s0,2-0.1,3c-0.1,0.8,0.7,1,1.3,0.8c0.4-0.2,0.6-0.5,0.6-0.9
		c0-1.9,0-3.9,0-5.8c0-0.1,0-0.2,0-0.3C35.4,26.1,35,25.8,34.4,25.9z"/>
	<path class="st1" d="M27,26.7c-0.6,0.1-0.8,0.3-0.8,0.9c0,1.7,0,3.3,0,5c0,0.2,0,0.4,0.1,0.5c0.2,0.5,0.7,0.6,1.2,0.5
		c0.3,0,0.6-0.4,0.6-0.8c0-0.9,0-1.7,0-2.6c0-0.8,0.1-1.7,0-2.7c0-0.1,0-0.2,0-0.3C27.9,26.8,27.4,26.6,27,26.7z"/>
	<path class="st1" d="M19.9,29.3c-0.6,0-1,0.3-1,0.9c0,0.8,0,1.7,0,2.6c0,0.1,0,0.1,0,0.2c0.1,0.5,0.4,0.7,1,0.7
		c0.4,0,0.8-0.4,0.8-0.8c0-0.5,0-0.9,0-1.4s0-0.9,0.2-1.3C20.9,29.7,20.4,29.3,19.9,29.3z"/>
	<path class="st1" d="M40,38.3c-2.1,1.4-2.9,2-4.8,2.3c-4.5,0.8-8.1-1.2-8.1-1.2s1.7,0.7,4,0.8c3.8,0.2,7.8-1.1,7.8-2.5
		c0-1.7-2.5-0.2-5.5-0.5c-2.1-0.2-4.3-1.3-5.8-2.1c-1.5-0.8-2.7-1.6-5.2-0.5c-1.6,0.7-5,2.5-5,2.5l3.5,7l1.6-1.1
		c0.9-0.6,1.4-0.8,2.6-0.2c1.1,0.6,4.7,2.2,5.6,2.6c2.7,1.2,3.8,0,5.1-0.8c1.1-0.7,7.1-5.1,8.3-6C45.4,37.7,42.4,36.9,40,38.3z"/>
</g>
</svg>
