<svg id="图层_1" data-name="图层 1" xmlns="http://www.w3.org/2000/svg" viewBox="0 0 48 48"><defs><style>.cls-1{fill:#1d96f3;}.cls-2{fill:#6fd6e5;}</style></defs><title>icon1225</title><path class="cls-1" d="M24,6A18.9,18.9,0,0,1,34.47,9.15l1.11-1.66A20.89,20.89,0,0,0,27,4.22V2H21V4.24A21,21,0,0,0,6.24,36.18L4.35,37.44,9,38.37l.93-4.65-2,1.35A19,19,0,0,1,24,6Z"/><path class="cls-1" d="M41.89,14.05l2-1.15-4.57-1.26-1.27,4.57L40.15,15A19,19,0,0,1,13.53,40.85l-1.11,1.66A21,21,0,0,0,41.89,14.05Z"/><polygon class="cls-2" points="27.36 23.31 30.34 23.31 30.34 21.31 28.19 21.31 24.07 17.19 16.98 17.19 16.98 19.19 23.24 19.19 27.36 23.31"/><rect class="cls-2" x="16.98" y="24.48" width="5.78" height="2"/><polygon class="cls-2" points="26.17 27.49 21.46 32.2 16.98 32.2 16.98 34.2 22.29 34.2 27 29.49 33.02 29.49 33.02 27.49 26.17 27.49"/></svg>