<svg xmlns="http://www.w3.org/2000/svg" viewBox="0 0 60 60"><g><path fill="#46A1FD" d="M43.1,30c0,7.2-5.9,13-13.1,13s-13.1-5.9-13.1-13c0-7.2,5.9-13,13.1-13c5.5,0,10.2,3.4,12.1,8.2l1.5-1.5	C41.2,18.5,36,15,30,15c-8.3,0-15.1,6.8-15.1,15c0,8.3,6.8,15,15.1,15s15.1-6.8,15.1-15c0-1.1-0.1-2.1-0.3-3.2L43,28.6	C43.1,29,43.1,29.5,43.1,30z"/><path fill="#46A1FD" d="M32.3,31.2L27,36.5l-3.1,3.2v-8.9h-3.6v-3.1h3.6H27v3.1v1.4l6.8-6.8l1.6-1.6v8.1l5.6-5.6	c-1.5-4.6-5.9-7.8-11-7.8c-6.4,0-11.6,5.2-11.6,11.5c0,6.4,5.2,11.5,11.6,11.5S41.6,36.4,41.6,30l-9.3,9.3V31.2z"/><path fill="#46A1FD" d="M30,0C13.4,0,0,13.4,0,30s13.4,30,30,30s30-13.4,30-30S46.6,0,30,0z M30,46.5c-9.1,0-16.6-7.4-16.6-16.5	S20.8,13.5,30,13.5c9.1,0,16.6,7.4,16.6,16.5S39.1,46.5,30,46.5z"/></g></svg>