<svg xmlns="http://www.w3.org/2000/svg" viewBox="0 0 1024 1024"><g fill="#fa9c20" transform="translate(50.000000, -11.000000)"><path d="M761.762869,598.835234 L761.762869,785.583292 L521.067278,785.583292 L521.067278,1018.34811 L569.829183,1018.34811 L569.829183,834.345197 L810.524774,834.345197 L810.524774,647.597139 L897.657406,647.597139 L893.907323,619.940272 C880.864714,523.751033 867.286604,447.326005 852.122319,378.191509 C847.557234,357.379131 829.271428,280.851708 827.046573,267.807059 C802.001469,120.964014 608.723656,-12.9748358 412.630224,42.6862772 C242.747198,90.9075674 155.773868,217.636273 155.773868,355.32467 L155.773868,517.66066 L204.535773,517.66066 L204.535773,355.32467 C204.535773,238.590503 277.962993,131.599813 425.945276,89.5950475 C593.14812,42.1345269 758.651998,156.826424 778.978794,276.005353 C781.52117,290.911668 800.242364,369.261223 804.492734,388.638806 C817.899979,449.762895 830.060765,516.788358 841.744862,598.835234 L761.762869,598.835234 Z"></path><path d="M238.932598,592.267183 C161.314436,741.891175 125.831624,870.917146 133.235859,979.739387 L181.885284,976.429294 C175.173395,877.782653 208.366741,757.081853 282.21702,614.721184 L238.932598,592.267183 Z"></path><path d="M242.829385,575.411953 C164.822362,677.507778 133.800703,810.781616 149.109039,974.070538 L197.65806,969.519067 C183.424466,817.694065 211.615541,696.580856 281.575916,605.016508 L242.829385,575.411953 Z" transform="translate(213.447137, 774.741245) rotate(-90.000000) translate(-213.447137, -774.741245) "></path><path d="M210.180624,959.524591 C299.329721,959.524591 371.599343,887.254969 371.599343,798.105872 C371.599343,708.956775 299.329721,636.687153 210.180624,636.687153 C121.031527,636.687153 48.7619048,708.956775 48.7619048,798.105872 C48.7619048,887.254969 121.031527,959.524591 210.180624,959.524591 Z M210.180624,1008.2865 C94.1010706,1008.2865 0,914.185426 0,798.105872 C0,682.026319 94.1010706,587.925248 210.180624,587.925248 C326.260177,587.925248 420.361248,682.026319 420.361248,798.105872 C420.361248,914.185426 326.260177,1008.2865 210.180624,1008.2865 Z"></path></g></svg>
