<svg id="图层_1" data-name="图层 1" xmlns="http://www.w3.org/2000/svg" viewBox="0 0 48 48"><defs><style>.cls-1{fill:#1d96f3;}.cls-2{fill:#6fd6e5;}</style></defs><title>icon1225</title><path class="cls-1" d="M31.27,0,19.54,6.77V20.32l10.73,6.19V40.06L43,32.71V6.77Zm1,14.12,8.73-5V19.16l-8.73,5ZM40,7.35l-8.73,5-8.73-5,8.73-5ZM21.54,9.08l8.73,5V24.2l-8.73-5ZM41,31.55l-8.73,5V26.51l8.73-5Z"/><path class="cls-2" d="M5,27.56V41.1l11.73,6.78L28.46,41.1V27.56L16.73,20.79Zm20.46.58-8.73,5L8,28.14l8.73-5ZM7,29.87l8.73,5V45L7,40ZM17.73,45V34.91l8.73-5V40Z"/></svg>