<svg xmlns="http://www.w3.org/2000/svg" viewBox="0 0 60 60"><path fill="#81c93a" d="M30,0A30,30,0,1,0,60,30,30,30,0,0,0,30,0ZM14.48,30.39V16.75C14.48,15,17.8,14,22,14s7.48,1,7.48,2.75V30.39c0,1.78-3.32,2.75-7.48,2.75S14.48,32.17,14.48,30.39Zm15,9.71h-5a3.59,3.59,0,0,1-3.59-3.59V34h1.61v2.5a2,2,0,0,0,2,2h5ZM30,21.51H35.6a3.59,3.59,0,0,1,3.59,3.59v.83H37.58V25.1a2,2,0,0,0-2-2H30ZM45.52,43.25C45.52,45,42.2,46,38,46s-7.48-1-7.48-2.75V29.61c0-1.78,3.32-2.75,7.48-2.75s7.48,1,7.48,2.75Z"/><path fill="#81c93a" d="M32.16,37.52v5.73a4.06,4.06,0,0,0,1.38.61,16.89,16.89,0,0,0,4.5.54,16.89,16.89,0,0,0,4.5-.54,4.06,4.06,0,0,0,1.38-.61V37.52a15.32,15.32,0,0,1-5.88.93A15.32,15.32,0,0,1,32.16,37.52Z"/><path fill="#81c93a" d="M26.46,31a4.06,4.06,0,0,0,1.38-.61V24.66a15.32,15.32,0,0,1-5.88.93,15.32,15.32,0,0,1-5.88-.93v5.73a4.06,4.06,0,0,0,1.38.61,16.89,16.89,0,0,0,4.5.54A16.89,16.89,0,0,0,26.46,31Z"/><path fill="#81c93a" d="M22,17.9a16.89,16.89,0,0,0,4.5-.54,4.06,4.06,0,0,0,1.38-.61,4.06,4.06,0,0,0-1.38-.61,16.89,16.89,0,0,0-4.5-.54,16.89,16.89,0,0,0-4.5.54,4.06,4.06,0,0,0-1.38.61,4.06,4.06,0,0,0,1.38.61A16.89,16.89,0,0,0,22,17.9Z"/><path fill="#81c93a" d="M38,28.47a16.89,16.89,0,0,0-4.5.54,4.06,4.06,0,0,0-1.38.61,4.06,4.06,0,0,0,1.38.61,16.89,16.89,0,0,0,4.5.54,16.89,16.89,0,0,0,4.5-.54,4.06,4.06,0,0,0,1.38-.61A4.06,4.06,0,0,0,42.53,29,16.89,16.89,0,0,0,38,28.47Z"/><path fill="#81c93a" d="M32.16,31.43V35.7a4.06,4.06,0,0,0,1.38.61,16.89,16.89,0,0,0,4.5.54,16.89,16.89,0,0,0,4.5-.54,4.06,4.06,0,0,0,1.38-.61V31.43a15.31,15.31,0,0,1-5.88.93A15.31,15.31,0,0,1,32.16,31.43Z"/><path fill="#81c93a" d="M22,24a16.89,16.89,0,0,0,4.5-.54,4.06,4.06,0,0,0,1.38-.61V18.57A15.32,15.32,0,0,1,22,19.5a15.32,15.32,0,0,1-5.88-.93v4.27a4.06,4.06,0,0,0,1.38.61A16.89,16.89,0,0,0,22,24Z"/></svg>
