<svg id="图层_1" data-name="图层 1" xmlns="http://www.w3.org/2000/svg" viewBox="0 0 48 48"><defs><style>.cls-1{fill:#1d96f3;}.cls-2{fill:#6fd6e5;}</style></defs><title>icon1225</title><path class="cls-1" d="M12,28c-3.71,0-10-.74-10-3.5V4.5C2,1.74,8.29,1,12,1s10,.74,10,3.5v20C22,27.26,15.71,28,12,28ZM4,24.43c.36.49,3,1.57,8,1.57s7.64-1.08,8-1.57V4.57C19.64,4.08,17,3,12,3S4.36,4.08,4,4.57Z"/><path class="cls-1" d="M12,8C8.29,8,2,7.26,2,4.5H4a.19.19,0,0,0,0-.1C4.24,4.87,6.92,6,12,6s7.76-1.13,8-1.6a.19.19,0,0,0,0,.1h2C22,7.26,15.71,8,12,8Z"/><path class="cls-1" d="M36,47c-3.71,0-10-.74-10-3.5v-20c0-2.76,6.29-3.5,10-3.5s10,.74,10,3.5v20C46,46.26,39.71,47,36,47Zm-8-3.57c.36.49,3,1.57,8,1.57s7.64-1.08,8-1.57V23.57c-.36-.49-3-1.57-8-1.57s-7.64,1.08-8,1.57Z"/><path class="cls-1" d="M36,27c-3.71,0-10-.74-10-3.5h2a.19.19,0,0,0,0-.1c.26.47,2.94,1.6,8,1.6s7.76-1.13,8-1.6a.19.19,0,0,0,0,.1h2C46,26.26,39.71,27,36,27Z"/><path class="cls-2" d="M24,12h8.16A2.84,2.84,0,0,1,35,14.84V18h2V14.84A4.84,4.84,0,0,0,32.16,10H24Z"/><path class="cls-2" d="M24,38H15.84A2.84,2.84,0,0,1,13,35.16V30H11v5.16A4.84,4.84,0,0,0,15.84,40H24Z"/><path class="cls-2" d="M12,14c-5,0-7.69-1.1-8-1.58v2.32A22.62,22.62,0,0,0,12,16a22.62,22.62,0,0,0,8-1.26V12.42C19.69,12.9,17,14,12,14Z"/><path class="cls-2" d="M36,33c-5,0-7.69-1.1-8-1.58v2.32A22.62,22.62,0,0,0,36,35a22.62,22.62,0,0,0,8-1.26V31.42C43.69,31.9,41,33,36,33Z"/></svg>