<?xml version="1.0" encoding="utf-8"?><!-- Generator: Adobe Illustrator 21.0.0, SVG Export Plug-In . SVG Version: 6.00 Build 0)  --><svg version="1.1" id="图层_1" xmlns="http://www.w3.org/2000/svg" xmlns:xlink="http://www.w3.org/1999/xlink" x="0px" y="0px" viewBox="0 0 20 20" style="enable-background:new 0 0 20 20;" xml:space="preserve"><style type="text/css">.st0{fill:#F29111;} 	.st1{opacity:0.8;fill:#F29111;} 	.st2{opacity:0.5;fill:#F29111;} 	.st3{fill:none;} 	.st4{fill:#00758F;} 	.st5{opacity:0.5;fill:#00758F;} 	.st6{fill:#942645;} 	.st7{fill:#FFFFFF;} 	.st8{fill:#BD1E21;} 	.st9{fill:#F80000;} 	.st10{fill:#8AADBF;} 	.st11{fill:#3A913F;}</style><g><g><path class="st8" d="M18.336,4.305l0.662-2.689c0,0-7.642-0.109-8.372,0C9.993,1.71,7.617,2.226,7.312,5.322	c-0.305,3.096,2.355,3.953,3.227,4.273s3.924,0.538,4.491,0.93c0.567,0.392,0.392,0.945,0.392,1.163s-0.349,0.959-1.003,1.046	c-0.654,0.087-7.151,0-7.151,0L6.614,15.58c0,0,7.961,0.007,8.282,0c1.917-0.042,3.137-1.598,3.353-2.942	c0.53-3.308-0.892-4.012-2.674-4.504c-1.234-0.341-2.842-0.611-3.824-0.918c-0.842-0.263-1.469-0.531-1.804-0.933	C9.619,5.892,9.69,4.342,10.626,4.305C11.678,4.264,18.336,4.305,18.336,4.305z"/><polygon class="st8" points="7.268,12.735 4.458,12.735 5.1,9.882 7.91,9.882 		"/><polygon class="st8" points="5.97,18.432 3.159,18.432 3.802,15.579 6.612,15.579 		"/><polygon class="st8" points="3.813,15.585 1.002,15.585 1.645,12.731 4.455,12.731 		"/></g></g></svg>