<?xml version="1.0" encoding="utf-8"?>
<!-- Generator: Adobe Illustrator 23.0.3, SVG Export Plug-In . SVG Version: 6.00 Build 0)  -->
<svg version="1.1" id="图层_1" xmlns="http://www.w3.org/2000/svg" xmlns:xlink="http://www.w3.org/1999/xlink" x="0px" y="0px"
	 viewBox="0 0 48 48" style="enable-background:new 0 0 48 48;" xml:space="preserve">
<style type="text/css">
	.st0{fill:#1D96F3;}
	.st1{fill:#6FD6E5;}
	.st2{fill:none;stroke:#000000;stroke-width:2;stroke-miterlimit:10;}
	.st3{fill:none;stroke:#000000;stroke-width:2;stroke-linecap:round;stroke-miterlimit:10;}
	.st4{fill:none;}
</style>
<path class="st1" d="M12.978,12.343c1.642-0.937,4.221-0.937,5.863-0.469c1.642,0.469,2.814,1.172,2.814,1.172S20.717,10,23.765,10
	c3.049,0.234,6.097,2.578,7.739,3.749c1.407,1.172,4.456,3.515,6.097,4.218c0,0-0.704,0.703-3.283,0.234
	c-1.876-0.469-2.814-1.875-5.394-3.281s-3.987-0.703-4.69,0c-0.704,0.469-0.469,1.172,0.469,2.109
	c0.704,0.703,1.642,1.172,2.345,1.172s1.407-0.234,1.407-0.234s0.469,2.109-1.407,2.109s-3.518-1.64-4.456-2.578
	c-0.704-0.703-1.876-1.875-3.283-2.343c-1.172-0.469-3.752-1.406-6.566,0.703c-1.172,0.937-1.172,4.218-1.172,4.218
	s-1.172-1.64-1.172-2.812C10.399,15.858,10.633,13.984,12.978,12.343z"/>
<path class="st4" d="M29.133,21.055c0,0,6.582,0.544,11.568,5.352c1.175,1.132,2.088,2.226,2.798,3.209V14.474
	c0-1.068-0.575-2.063-1.5-2.598L25.5,2.35c-0.463-0.267-0.981-0.401-1.5-0.401s-1.037,0.134-1.5,0.401L6,11.876
	c-0.925,0.534-1.5,1.529-1.5,2.598v19.053c0,1.067,0.575,2.063,1.5,2.598l12.859,7.424c0.797-0.713,1.575-1.494,2.262-2.339
	c3.244-3.99,4.81-10.152,4.81-10.152s1.042,6.522-2.437,12.511c-0.414,0.712-0.833,1.351-1.249,1.935L22.5,45.65
	c0.926,0.535,2.074,0.535,3,0l2.417-1.395c0.493-1.27,2.125-5.816,2.04-10.187c-0.1-5.142-2.883-10.858-2.883-10.858
	s5.007,4.307,6.218,11.127c0.509,2.868,0.423,5.156,0.231,6.681l8.263-4.771c-0.631-2.007-1.9-5.398-3.942-8.099
	C34.744,24.046,29.133,21.055,29.133,21.055z"/>
<path class="st0" d="M45.5,33.085v0.442c0,0.136-0.016,0.269-0.027,0.403"/>
<path class="st0" d="M42.956,10.175L26.494,0.67c-1.539-0.888-3.449-0.888-4.989,0L5.044,10.175
	c-1.538,0.889-2.494,2.544-2.494,4.32v19.009c0,1.776,0.956,3.431,2.494,4.32L17.23,44.86l3.783,2.184l0.492,0.284
	c0.769,0.444,1.632,0.666,2.494,0.666s1.726-0.222,2.494-0.666l16.462-9.505c1.421-0.822,2.335-2.298,2.467-3.918
	c0.011-0.134,0.027-0.267,0.027-0.402v-0.441V14.495C45.451,12.719,44.495,11.064,42.956,10.175z M43.455,29.602
	c-0.709-0.98-1.62-2.072-2.792-3.201c-4.975-4.797-11.542-5.34-11.542-5.34s5.598,2.984,8.692,7.077
	c2.037,2.695,3.303,6.078,3.933,8.08l-8.244,4.76c0.192-1.522,0.278-3.804-0.23-6.665c-1.208-6.804-6.203-11.102-6.203-11.102
	s2.777,5.704,2.876,10.833c0.084,4.36-1.544,8.896-2.035,10.163L25.497,45.6c-0.924,0.534-2.069,0.534-2.993,0l-0.254-0.147
	c0.415-0.583,0.833-1.22,1.246-1.931c3.471-5.976,2.432-12.483,2.432-12.483s-1.563,6.148-4.799,10.129
	c-0.686,0.843-1.462,1.623-2.257,2.334l-12.83-7.407c-0.923-0.533-1.497-1.527-1.497-2.592V14.495c0-1.066,0.574-2.059,1.497-2.592
	l16.462-9.505c0.462-0.266,0.979-0.4,1.497-0.4s1.035,0.133,1.497,0.4l16.462,9.505c0.923,0.533,1.497,1.526,1.497,2.592V29.602z"/>
</svg>
