<svg xmlns="http://www.w3.org/2000/svg" viewBox="0 0 60 60"><path fill="#fa9c20" d="M21.88,39.86A16.17,16.17,0,0,0,21.35,44a5.13,5.13,0,0,0,5.93-3.71A21.34,21.34,0,0,1,21.88,39.86Z"/><path fill="#fa9c20" d="M22.27,33.65a5.2,5.2,0,0,0-4.6,2.8,13.14,13.14,0,0,0,3.11,1.49,34.23,34.23,0,0,1,1.7-4.26Z"/><path fill="#fa9c20" d="M17,38.87a5.2,5.2,0,0,0,2.71,4.55,18.51,18.51,0,0,1,.59-4A14.82,14.82,0,0,1,17.14,38,5.21,5.21,0,0,0,17,38.87Z"/><path fill="#fa9c20" d="M24.09,34a33.55,33.55,0,0,0-1.78,4.35,20.07,20.07,0,0,0,5.17.36A5.21,5.21,0,0,0,24.09,34Z"/><path fill="#fa9c20" d="M30,0A30,30,0,1,0,60,30,30,30,0,0,0,30,0ZM22.27,45.67a6.8,6.8,0,1,1,6.8-6.8A6.8,6.8,0,0,1,22.27,45.67ZM41.71,34v6H33.92v6H32.34V38.47h7.79v-6h2.59c-.38-2.66-.77-4.83-1.21-6.8-.14-.63-.74-3.16-.83-3.65-.66-3.86-6-7.57-11.43-6-4.79,1.36-7.17,4.82-7.17,8.6v5.25H20.51V24.54c0-4.46,2.82-8.56,8.31-10.12,6.35-1.8,12.6,2.53,13.41,7.29.07.42.66,2.9.81,3.57.49,2.24.93,4.71,1.35,7.83l.12.9Z"/></svg>
