<svg xmlns="http://www.w3.org/2000/svg" viewBox="0 0 60 60"><path fill="#fb7069" d="M30,0A30,30,0,1,0,60,30,30,30,0,0,0,30,0ZM18.3,38l.83-.83v3.12H16l1.16-1.16a15.41,15.41,0,0,1,11.45-23.9V14h2.76v1.22a15.35,15.35,0,0,1,8.48,3.5l-1,1.2A13.86,13.86,0,0,0,18.3,38Zm10.84-8.39v1.56H24.72V29.61Zm-4.42-3.9V24.15H30l3,3h1.89v1.56H32.41l-3-3ZM28,35.54,31.58,32h5.85v1.56h-5.2L28.64,37.1H24.72V35.54ZM30,46a15.36,15.36,0,0,1-9.78-3.5l1-1.21A13.86,13.86,0,0,0,41.41,22.7l-.91.91V20.49h3.12l-1.1,1.1A15.41,15.41,0,0,1,30,46Z"/></svg>
