<?xml version="1.0" encoding="utf-8"?>
<!-- Generator: Adobe Illustrator 23.0.2, SVG Export Plug-In . SVG Version: 6.00 Build 0)  -->
<svg version="1.1" id="图层_1" xmlns="http://www.w3.org/2000/svg" xmlns:xlink="http://www.w3.org/1999/xlink" x="0px" y="0px"
	 viewBox="0 0 48 48" style="enable-background:new 0 0 48 48;" xml:space="preserve">
<style type="text/css">
	.st0{fill:#1D96F3;}
	.st1{fill:#6FD6E5;}
</style>
<g>
	<g>
		<g>
			<path class="st0" d="M34.159,48H11.398c-0.552,0-1-0.448-1-1s0.448-1,1-1h22.761c1.574,0,3.116-0.553,4.459-1.599
				c2.25-1.754,4.269-3.896,6.001-6.369c0.342-0.489,0.282-1.119,0.07-1.526C44.61,36.354,44.385,36,44.007,36H3.965
				c-0.354,0-0.564,0.304-0.658,0.485c-0.213,0.409-0.27,1.045,0.082,1.546c0.978,1.392,2.033,2.666,3.16,3.822
				c0.386,0.396,0.378,1.029-0.018,1.414c-0.395,0.386-1.029,0.377-1.414-0.018c-1.202-1.232-2.325-2.589-3.341-4.035
				c-0.757-1.079-0.843-2.499-0.243-3.653C2.041,34.584,2.951,34,3.965,34h40.042c1.022,0,1.94,0.592,2.456,1.583
				c0.599,1.151,0.518,2.563-0.207,3.597c-1.846,2.635-4.002,4.922-6.409,6.798C38.15,47.301,36.183,48,34.159,48z"/>
		</g>
	</g>
	<g>
		<g>
			<path class="st1" d="M19.593,31H6.158c-1.077,0-2.044-0.598-2.526-1.561s-0.379-2.096,0.267-2.957l15.75-21
				c0.635-0.847,1.693-1.177,2.697-0.843c1.004,0.334,1.653,1.235,1.653,2.293v19.661C23.999,29.023,22.022,31,19.593,31z
				 M21.568,6.512c-0.1,0-0.219,0.037-0.319,0.17l-15.75,21c-0.275,0.367-0.146,0.725-0.078,0.862C5.49,28.682,5.699,29,6.158,29
				h13.435c1.327,0,2.407-1.08,2.407-2.407V6.933c0-0.262-0.179-0.36-0.285-0.396C21.676,6.524,21.625,6.512,21.568,6.512z"/>
		</g>
		<g>
			<path class="st0" d="M39.867,31c-0.355,0-0.699-0.189-0.88-0.524l-13-24c-0.263-0.485-0.083-1.092,0.403-1.355
				c0.486-0.265,1.092-0.082,1.355,0.403l13,24c0.263,0.485,0.083,1.092-0.403,1.355C40.19,30.961,40.027,31,39.867,31z"/>
		</g>
	</g>
</g>
</svg>
