<svg xmlns="http://www.w3.org/2000/svg" viewBox="0 0 1024 1024"><g fill="#81c93a" transform="translate(24.000000, 0.000000)"><path d="M479.386518,767.419501 L327.401361,767.419501 C294.233764,767.419501 267.346114,740.531851 267.346114,707.364255 L267.346114,631.371676 L218.584209,631.371676 L218.584209,707.364255 C218.584209,767.462308 267.303307,816.181406 327.401361,816.181406 L479.386518,816.181406 L479.386518,767.419501 Z M496.273758,301.120594 L665.146155,301.120594 C698.313752,301.120594 725.201402,328.008243 725.201402,361.17584 L725.201402,386.5067 L773.963307,386.5067 L773.963307,361.17584 C773.963307,301.077787 725.244209,252.358689 665.146155,252.358689 L496.273758,252.358689 L496.273758,301.120594 Z"></path><path d="M24.3809524,107.867244 L24.3809524,521.604618 C24.3809524,575.750241 124.97753,605.090909 251.408782,605.090909 C377.840033,605.090909 478.436611,575.750241 478.436611,521.604618 L478.436611,107.867244 L429.674706,107.867244 L429.674706,521.604618 C429.674706,522.306282 415.865444,531.828838 387.875096,539.992689 C352.50336,550.309446 303.708497,556.329004 251.408782,556.329004 C199.109067,556.329004 150.314203,550.309446 114.942467,539.992689 C86.9521191,531.828838 73.1428571,522.306282 73.1428571,521.604618 L73.1428571,107.867244 L24.3809524,107.867244 Z"></path><path d="M251.408782,191.353535 C124.97753,191.353535 24.3809524,162.012867 24.3809524,107.867244 C24.3809524,53.7216209 124.97753,24.3809524 251.408782,24.3809524 C377.840033,24.3809524 478.436611,53.7216209 478.436611,107.867244 C478.436611,162.012867 377.840033,191.353535 251.408782,191.353535 Z M251.408782,142.591631 C303.708497,142.591631 352.50336,136.572072 387.875096,126.255316 C415.865444,118.091464 429.674706,108.568908 429.674706,107.867244 C429.674706,107.165579 415.865444,97.6430237 387.875096,89.4791721 C352.50336,79.1624158 303.708497,73.1428571 251.408782,73.1428571 C199.109067,73.1428571 150.314203,79.1624158 114.942467,89.4791721 C86.9521191,97.6430237 73.1428571,107.165579 73.1428571,107.867244 C73.1428571,108.568908 86.9521191,118.091464 114.942467,126.255316 C150.314203,136.572072 199.109067,142.591631 251.408782,142.591631 Z"></path><path d="M24.3809524,292.571429 C24.3809524,346.717051 124.97753,376.05772 251.408782,376.05772 C377.840033,376.05772 478.436611,346.717051 478.436611,292.571429 L429.674706,292.571429 C429.674706,293.273093 415.865444,302.795649 387.875096,310.9595 C352.50336,321.276257 303.708497,327.295815 251.408782,327.295815 C199.109067,327.295815 150.314203,321.276257 114.942467,310.9595 C86.9521191,302.795649 73.1428571,293.273093 73.1428571,292.571429 L24.3809524,292.571429 Z"></path><path d="M512,497.962482 L512,911.699856 C512,965.845479 612.596578,995.186147 739.027829,995.186147 C865.459081,995.186147 966.055659,965.845479 966.055659,911.699856 L966.055659,497.962482 L917.293754,497.962482 L917.293754,911.699856 C917.293754,912.40152 903.484492,921.924076 875.494144,930.087927 C840.122408,940.404684 791.327544,946.424242 739.027829,946.424242 C686.728114,946.424242 637.933251,940.404684 602.561515,930.087927 C574.571167,921.924076 560.761905,912.40152 560.761905,911.699856 L560.761905,497.962482 L512,497.962482 Z"></path><path d="M739.027829,581.448773 C612.596578,581.448773 512,552.108105 512,497.962482 C512,443.816859 612.596578,414.47619 739.027829,414.47619 C865.459081,414.47619 966.055659,443.816859 966.055659,497.962482 C966.055659,552.108105 865.459081,581.448773 739.027829,581.448773 Z M739.027829,532.686869 C791.327544,532.686869 840.122408,526.66731 875.494144,516.350554 C903.484492,508.186702 917.293754,498.664146 917.293754,497.962482 C917.293754,497.260817 903.484492,487.738262 875.494144,479.57441 C840.122408,469.257654 791.327544,463.238095 739.027829,463.238095 C686.728114,463.238095 637.933251,469.257654 602.561515,479.57441 C574.571167,487.738262 560.761905,497.260817 560.761905,497.962482 C560.761905,498.664146 574.571167,508.186702 602.561515,516.350554 C637.933251,526.66731 686.728114,532.686869 739.027829,532.686869 Z"></path><path d="M512,682.666667 C512,736.81229 612.596578,766.152958 739.027829,766.152958 C865.459081,766.152958 966.055659,736.81229 966.055659,682.666667 L917.293754,682.666667 C917.293754,683.368331 903.484492,692.890887 875.494144,701.054738 C840.122408,711.371495 791.327544,717.391053 739.027829,717.391053 C686.728114,717.391053 637.933251,711.371495 602.561515,701.054738 C574.571167,692.890887 560.761905,683.368331 560.761905,682.666667 L512,682.666667 Z"></path></g></svg>
