<?xml version="1.0" encoding="utf-8"?><!-- Generator: Adobe Illustrator 21.0.0, SVG Export Plug-In . SVG Version: 6.00 Build 0)  --><svg version="1.1" id="图层_1" xmlns="http://www.w3.org/2000/svg" xmlns:xlink="http://www.w3.org/1999/xlink" x="0px" y="0px" viewBox="0 0 20 20" style="enable-background:new 0 0 20 20;" xml:space="preserve"><style type="text/css">.st0{fill:#F29111;} 	.st1{opacity:0.8;fill:#F29111;} 	.st2{opacity:0.5;fill:#F29111;} 	.st3{fill:none;} 	.st4{fill:#00758F;} 	.st5{opacity:0.5;fill:#00758F;} 	.st6{fill:#942645;} 	.st7{fill:#FFFFFF;} 	.st8{fill:#BD1E21;} 	.st9{fill:#F80000;} 	.st10{fill:#8AADBF;} 	.st11{fill:#3A913F;}</style><path class="st10" d="M17.619,5.068l1.879,1.76l0.495-0.6l-2.374-2.223V3.987h-0.552h-0.212h-0.664v0.072 	c-1.378,2.151-3.664,3.49-6.168,3.49c-2.528,0-4.835-1.362-6.208-3.548V3.988H3.19h-0.24H2.388l0,0l0,0H2.386v0.002L0.008,6.216 	l0.495,0.6l1.884-1.764v4.872H0.485v1.523h1.901v3.55H1.191v1.015h3.805v-1.015H3.814v-3.55h12.377v3.548h-1.195v1.015h3.805v-1.015 	h-1.182v-3.548h1.907V9.924h-1.907V5.068z M12.626,7.842c0.263-0.094,0.519-0.205,0.771-0.327v2.408h-0.771V7.842z M11.925,9.924 	h-0.77V8.203c0.26-0.039,0.517-0.087,0.77-0.152V9.924z M14.097,7.127c0.266-0.164,0.524-0.341,0.771-0.535v3.332h-0.771V7.127z M10.454,8.272v1.652H9.683V8.277c0.113,0.005,0.225,0.02,0.339,0.02C10.168,8.297,10.31,8.28,10.454,8.272z M6.74,7.556 	C6.992,7.673,7.248,7.779,7.51,7.87v2.054H6.74V7.556z M6.039,9.924H5.269V6.66c0.248,0.189,0.505,0.362,0.771,0.52V9.924z M8.211,8.079c0.253,0.061,0.511,0.105,0.771,0.14v1.704H8.211V8.079z M3.814,5.252c0.233,0.29,0.489,0.556,0.754,0.809v3.862H3.814 	V5.252z M15.569,9.924V5.977c0.218-0.215,0.426-0.441,0.622-0.681v4.628H15.569z"/></svg>