<svg xmlns="http://www.w3.org/2000/svg" viewBox="0 0 16 16" fill="#93DC4C"><path d="M14.536,3.322c0-0.192-0.056-0.393-0.137-0.597c-0.718,0.215-1.751,0.158-2.913-0.237 C9.957,1.969,8.647,1.016,8,0.067C7.354,1.018,6.043,1.969,4.514,2.489C3.351,2.885,2.319,2.941,1.6,2.727 C1.519,2.931,1.463,3.132,1.463,3.322c0,0.246,0.086,0.449,0.214,0.627C1.542,4.717,1.463,5.516,1.463,6.345 c0,5.296,4.37,9.588,6.537,9.588c1.015,0,2.561-0.998,3.897-2.615h0.026v-0.03c1.432-1.747,2.615-4.208,2.615-6.943 c0-0.829-0.079-1.629-0.214-2.396C14.451,3.773,14.536,3.569,14.536,3.322z M12.587,8.09H8.436v5.148 C8.274,13.286,8.123,13.319,8,13.319c-1.105,0-3.833-1.945-4.59-5.23h5.026l-0.112-5.08c0.646,0.492,1.428,0.929,2.291,1.222 c0.756,0.257,1.455,0.367,2.054,0.359c0.079,0.565,0.125,1.151,0.125,1.755C12.793,6.964,12.714,7.543,12.587,8.09z"/></svg>
