<svg xmlns="http://www.w3.org/2000/svg" viewBox="0 0 16 16" fill="#46A1FD"><path d="M14.462,7.63c-0.192,0-0.375,0.039-0.544,0.106l-3.894-3.894c0.133-0.286,0.213-0.602,0.213-0.939 c0-1.235-1.001-2.237-2.237-2.237S5.763,1.667,5.763,2.903c0,0.352,0.088,0.68,0.233,0.976L2.124,7.75 c-0.18-0.077-0.378-0.12-0.586-0.12c-0.824,0-1.491,0.668-1.491,1.491c0,0.824,0.668,1.491,1.491,1.491s1.491-0.668,1.491-1.491 c0-0.251-0.068-0.484-0.178-0.692l3.774-3.774C6.88,4.856,7.176,5.005,7.503,5.08v6.856C6.786,12.15,6.26,12.808,6.26,13.594 c0,0.961,0.779,1.74,1.74,1.74s1.74-0.779,1.74-1.74c0-0.787-0.526-1.444-1.243-1.659V5.08c0.341-0.078,0.647-0.237,0.909-0.45 l3.763,3.763c-0.122,0.216-0.198,0.463-0.198,0.729c0,0.824,0.668,1.491,1.491,1.491s1.491-0.668,1.491-1.491 C15.953,8.297,15.285,7.63,14.462,7.63z"/></svg>
