<svg xmlns="http://www.w3.org/2000/svg" viewBox="0 0 16 16" fill="#EF5855"><g><g><path d="M7.439,2.203c0,0.361-0.259,0.798-0.575,0.972L4.948,4.23C4.632,4.404,4.386,4.252,4.402,3.891 L4.47,2.269c0.015-0.36,0.284-0.802,0.597-0.982L6.87,0.254c0.313-0.179,0.569-0.031,0.569,0.33V2.203z"/></g><g><path d="M7.439,6.691c0,0.361-0.262,0.791-0.583,0.957L4.767,8.727c-0.321,0.166-0.57,0.006-0.555-0.354 l0.084-1.989C4.311,6.023,4.583,5.587,4.9,5.415l1.961-1.063C7.178,4.18,7.438,4.335,7.438,4.695L7.439,6.691L7.439,6.691z"/></g><g><path d="M3.027,8.99c-0.021,0.36-0.3,0.79-0.62,0.956l-1.874,0.968c-0.321,0.166-0.555,0.007-0.521-0.352 L0.2,8.582c0.034-0.359,0.321-0.794,0.639-0.966L2.603,6.66c0.317-0.172,0.56-0.018,0.539,0.342L3.027,8.99z"/></g><g><path d="M3.284,4.513C3.263,4.873,2.988,5.31,2.672,5.484l-1.724,0.95C0.631,6.608,0.401,6.457,0.435,6.098 l0.154-1.626c0.034-0.359,0.318-0.8,0.631-0.979L2.846,2.56c0.313-0.179,0.552-0.032,0.531,0.329L3.284,4.513z"/></g></g><g><g><path d="M8.561,2.203c0,0.361,0.259,0.798,0.575,0.972l1.916,1.055c0.316,0.174,0.562,0.022,0.547-0.339 L11.53,2.269c-0.015-0.36-0.284-0.802-0.597-0.982L9.13,0.254c-0.313-0.179-0.569-0.031-0.569,0.33V2.203z"/></g><g><path d="M8.561,6.691c0,0.361,0.262,0.791,0.583,0.957l2.089,1.079c0.321,0.166,0.57,0.006,0.555-0.354 l-0.084-1.989c-0.015-0.36-0.287-0.796-0.605-0.968L9.138,4.353C8.821,4.181,8.561,4.335,8.561,4.696V6.691z"/></g><g><path d="M12.973,8.99c0.021,0.36,0.3,0.79,0.62,0.956l1.874,0.968c0.321,0.166,0.555,0.007,0.521-0.352 L15.8,8.582c-0.034-0.359-0.321-0.794-0.639-0.966L13.397,6.66c-0.317-0.172-0.56-0.018-0.539,0.342L12.973,8.99z"/></g><g><path d="M12.716,4.513c0.021,0.36,0.296,0.797,0.612,0.971l1.724,0.95c0.316,0.174,0.547,0.023,0.513-0.337 l-0.154-1.626c-0.034-0.359-0.318-0.8-0.631-0.979L13.154,2.56c-0.313-0.179-0.552-0.032-0.531,0.329L12.716,4.513z"/></g></g><g><g><path d="M12.91,13.5c-0.325,0.157-0.855,0.154-1.177-0.007l-2.094-1.046c-0.323-0.161-0.322-0.423,0.002-0.583 l2.141-1.054c0.324-0.159,0.853-0.159,1.177,0l2.143,1.054c0.324,0.159,0.323,0.418-0.002,0.575L12.91,13.5z"/></g><g><path d="M8.348,15.708c-0.325,0.157-0.853,0.152-1.175-0.012l-2.029-1.034c-0.321-0.164-0.32-0.428,0.004-0.587 l2.067-1.017c0.324-0.159,0.852-0.157,1.175,0.005l2.076,1.042c0.322,0.162,0.321,0.423-0.004,0.58L8.348,15.708z"/></g><g><path d="M3.945,13.46c-0.323,0.16-0.851,0.157-1.172-0.007l-1.965-1.001c-0.321-0.164-0.321-0.431,0.002-0.593 l2.005-1.008c0.322-0.162,0.85-0.162,1.172,0l2.01,1.009c0.322,0.162,0.322,0.425-0.002,0.585L3.945,13.46z"/></g><g><path d="M8.41,11.249c-0.323,0.16-0.852,0.159-1.175-0.002l-2.028-1.012c-0.323-0.161-0.323-0.426-0.001-0.588 l2.076-1.044C7.605,8.44,8.134,8.438,8.458,8.597l2.075,1.02c0.324,0.159,0.324,0.42,0.001,0.58L8.41,11.249z"/></g></g></svg>
