<?xml version="1.0" encoding="utf-8"?><!-- Generator: Adobe Illustrator 21.0.0, SVG Export Plug-In . SVG Version: 6.00 Build 0)  --><svg version="1.1" id="图层_1" xmlns="http://www.w3.org/2000/svg" xmlns:xlink="http://www.w3.org/1999/xlink" x="0px" y="0px" viewBox="0 0 20 20" style="enable-background:new 0 0 20 20;" xml:space="preserve"><style type="text/css">.st0{fill:#F29111;} 	.st1{opacity:0.8;fill:#F29111;} 	.st2{opacity:0.5;fill:#F29111;} 	.st3{fill:none;} 	.st4{fill:#00758F;} 	.st5{opacity:0.5;fill:#00758F;} 	.st6{fill:#942645;} 	.st7{fill:#FFFFFF;} 	.st8{fill:#BD1E21;} 	.st9{fill:#F80000;} 	.st10{fill:#8AADBF;} 	.st11{fill:#3A913F;}</style><g><path class="st3" d="M17.331,9.322c-0.036-0.389-0.101-0.769-0.195-1.138c-0.002-0.006-0.004-0.012-0.006-0.018L9.788,8.365	l6.539-2.125c-0.001-0.002-0.002-0.005-0.004-0.007c-0.284-0.475-0.621-0.915-1.002-1.314c-0.004-0.004-0.008-0.007-0.012-0.011	L9.635,8.012l4.283-4.241c-0.005-0.003-0.01-0.008-0.016-0.011C12.77,3.049,11.433,2.636,10,2.636C5.94,2.636,2.636,5.94,2.636,10	c0,2.631,1.392,4.938,3.474,6.241l0.102-1.783l3.231,1.697l0.068,1.184C9.673,17.35,9.835,17.364,10,17.364	c3.492,0,6.422-2.444,7.174-5.71c0-0.001,0-0.002,0.001-0.003L9.776,8.823L17.331,9.322z M6.227,14.201l0.037-0.651l3.124,1.641	l0.039,0.692L6.227,14.201z M9.333,14.227l0.04,0.692l-3.094-1.625l0.037-0.651L9.333,14.227z M6.33,12.386l0.044-0.771	l2.896,1.521l0.047,0.818L6.33,12.386z M9.566,10H9.092l0.164,2.864l-0.01-0.005l0,0.005L6.38,11.359L6.458,10H6.06V9.299h0.468	v-1.87H5.499l2.314-2.314l2.314,2.314H9.099v1.87h0.468V10z"/><path class="st4" d="M9.099,7.429h1.028L7.813,5.114L5.499,7.429h1.029v1.87H6.06V10h0.398L6.38,11.359l2.866,1.505l0-0.005	l0.01,0.005L9.092,10h0.475V9.299H9.099V7.429z M6.761,7.429h2.104v1.87H8.397V8.364c0-0.258-0.209-0.468-0.468-0.468H7.696	c-0.258,0-0.468,0.209-0.468,0.468v0.935H6.761V7.429z"/><polygon class="st4" points="6.375,11.615 6.33,12.386 9.318,13.955 9.271,13.136 	"/><polygon class="st4" points="6.279,13.293 9.373,14.919 9.333,14.227 6.316,12.642 	"/><polygon class="st4" points="6.264,13.55 6.227,14.201 9.428,15.883 9.388,15.191 	"/><path class="st4" d="M17.175,11.65c0,0.001,0,0.002-0.001,0.003c-0.753,3.267-3.682,5.71-7.174,5.71	c-0.165,0-0.327-0.014-0.489-0.025l-0.068-1.184l-3.231-1.697L6.11,16.241C4.028,14.938,2.636,12.631,2.636,10	c0-4.06,3.303-7.364,7.364-7.364c1.433,0,2.77,0.413,3.903,1.123c0.005,0.003,0.01,0.008,0.016,0.011l1.187-1.176	c-0.008-0.005-0.014-0.012-0.021-0.017C13.636,1.584,11.885,1,10,1c-4.963,0-9,4.037-9,9c0,4.962,4.037,9,9,9	c4.189,0,7.719-2.877,8.717-6.759c0,0,0-0.001,0-0.001L17.175,11.65z"/><path class="st4" d="M15.322,4.919c0.38,0.398,0.717,0.838,1.002,1.314c0.001,0.002,0.002,0.005,0.004,0.007l1.589-0.517	c-0.001-0.002-0.002-0.005-0.003-0.007c-0.313-0.575-0.688-1.111-1.114-1.603c-0.004-0.004-0.008-0.008-0.012-0.012L15.31,4.908	C15.314,4.912,15.318,4.915,15.322,4.919z"/><path class="st4" d="M17.136,8.184c0.094,0.369,0.159,0.75,0.195,1.138l1.649,0.109c-0.028-0.438-0.085-0.869-0.174-1.288	c-0.002-0.008-0.005-0.014-0.006-0.022l-1.669,0.045C17.132,8.172,17.135,8.178,17.136,8.184z"/><g><path class="st5" d="M9.635,8.012l5.675-3.104l1.476-0.807c-0.495-0.569-1.06-1.075-1.682-1.505l-1.187,1.176L9.635,8.012z"/><path class="st5" d="M9.788,8.365l7.342-0.198L18.8,8.121c-0.181-0.849-0.481-1.655-0.884-2.398L16.327,6.24L9.788,8.365z"/><path class="st5" d="M19,10c0-0.191-0.008-0.38-0.02-0.568l0-0.001l-1.649-0.109L9.776,8.823l7.398,2.827l1.543,0.59	C18.902,11.523,19,10.773,19,10z"/></g></g></svg>