<svg xmlns="http://www.w3.org/2000/svg" viewBox="0 0 16 16" fill="#015190"><path d="M13.708,0.01H2.293c-1.255,0-2.283,1.027-2.283,2.283v11.414c0,1.255,1.027,2.283,2.283,2.283h11.414 c1.255,0,2.283-1.027,2.283-2.283V2.292C15.99,1.037,14.963,0.01,13.708,0.01z M2.965,0.951h10.071c1.107,0,2.014,0.907,2.014,2.014 v4.128h-2.27l-1.065-1.17c-0.098-0.145-0.255-0.252-0.443-0.278c-0.033-0.004-0.066-0.008-0.1-0.007 c-0.155-0.001-0.313,0.054-0.436,0.168c-0.128,0.116-0.198,0.273-0.21,0.432L9.419,9.914L7.823,2.915 C7.751,2.612,7.479,2.411,7.18,2.418C6.918,2.412,6.664,2.57,6.564,2.832L4.58,9.402L2.664,7.309C2.536,7.168,2.36,7.099,2.184,7.1H0.951V2.965C0.951,1.857,1.857,0.951,2.965,0.951z M13.035,15.049H2.965c-1.107,0-2.014-0.907-2.014-2.014V8.391h0.953l2.472,2.699 c0.129,0.141,0.307,0.211,0.484,0.208c0.264,0.007,0.516-0.152,0.616-0.414l1.618-5.36L8.7,12.563 c0.071,0.297,0.338,0.496,0.63,0.495c0.317,0.002,0.597-0.23,0.644-0.554l1.485-4.942l0.543,0.595 c0.054,0.061,0.117,0.107,0.188,0.142c0.092,0.053,0.202,0.085,0.32,0.085h2.539v4.652C15.049,14.143,14.143,15.049,13.035,15.049z"/></svg>
