<svg xmlns="http://www.w3.org/2000/svg" viewBox="0 0 16 16" fill="#93DC4C"><path d="M14.0185151,9.470006 C13.2567556,13.3101011 9.7222316,15.7644402 6.12164174,14.951997 C5.88540621,14.898968 5.65517666,14.832932 5.42995211,14.7538889 C5.23675949,14.2826318 5.07760081,13.7883621 4.96248603,13.2700793 C4.87239621,12.8618566 4.81233633,12.455635 4.7773014,12.0504139 C5.09862176,11.9033336 5.35087326,11.5991677 5.42895111,11.2069537 C5.5360579,10.6706611 5.2818044,10.146375 4.84436827,9.90924565 C4.89541917,9.56505786 4.96649003,9.2258728 5.05457785,8.89369157 C6.18070062,9.29791211 7.39391021,9.46300218 8.62814077,9.35094104 C8.77428648,9.66411191 9.04455594,9.90924565 9.38990026,9.98728823 C9.99150007,10.1223619 10.5810879,9.71313865 10.7082146,9.07278928 C10.7202266,9.0077538 10.7252316,8.94371886 10.7282346,8.87968392 C12.0065091,8.41943281 13.1326318,7.67302557 14.054551,6.72050588 C14.2067027,7.60498845 14.2036997,8.53549614 14.0185151,9.470006 M0.982517925,6.52940162 C1.01555086,6.36130991 1.05659178,6.19621983 1.10063569,6.03313085 C1.98551794,7.14573789 3.09862773,8.020215 4.34186727,8.59853053 C4.23275848,8.9947467 4.14767365,9.39896724 4.08761377,9.81119215 C3.68220957,9.91324783 3.34687524,10.2524329 3.25478342,10.7156856 C3.13466366,11.3220165 3.47199999,11.911338 4.01654291,12.0894352 C4.05357984,12.5426824 4.11964571,13.0009325 4.2217475,13.4571814 C4.28681237,13.7513419 4.36589122,14.037498 4.45498004,14.319652 C1.84738021,12.8928735 0.346884185,9.73515066 0.982517925,6.52940162 M8.87839027,1.04741066 C9.67718669,1.22750892 10.4109182,1.55468743 11.0625679,1.99392707 C10.9784841,2.0119369 10.8954013,2.02894618 10.8113174,2.0489571 C9.94845715,2.26907719 9.15266373,2.62827317 8.42293617,3.07851882 C8.28079446,2.93944294 8.1066208,2.83438563 7.9044192,2.78936106 C7.3028194,2.65428736 6.71323156,3.06351064 6.58710581,3.70386001 C6.53104993,3.97901013 6.57509384,4.24915752 6.68620462,4.48228471 C5.77429543,5.42980168 5.05057386,6.56542127 4.58911377,7.82710964 C3.33986825,7.23478647 2.23776944,6.31228316 1.40193609,5.13564118 C2.64417463,2.11799476 5.7372585,0.339024163 8.87839027,1.04741066 M13.8343314,5.79800257 C12.9424422,6.82656375 11.8073105,7.6300021 10.4960031,8.10426085 C10.3408484,7.89014403 10.1186268,7.7280556 9.85035934,7.6670223 C9.26277351,7.53495024 8.68920165,7.92516314 8.54405693,8.54049886 C7.42394016,8.64055345 6.32284234,8.48947102 5.29882137,8.12227068 C5.72524652,6.9586358 6.3939132,5.91106425 7.23875552,5.03958878 C7.30382039,5.06960515 7.37288926,5.09361826 7.44396012,5.11062754 C8.04555992,5.24570123 8.63514775,4.83547742 8.7612735,4.19512804 C8.78830045,4.06205544 8.78729945,3.93098393 8.77228448,3.80291405 C9.44795814,3.38168423 10.1856937,3.04550081 10.9874931,2.84339054 C11.2937985,2.76534796 11.6001039,2.71031793 11.9054083,2.6702961 C12.7972975,3.5097541 13.4649632,4.59334531 13.8343314,5.79800257 M14.7422366,5.9230708 C14.6621568,5.60589775 14.566061,5.29472798 14.4509462,4.99356367 C14.1166129,4.11508437 13.6371348,3.30764383 13.039539,2.60726171 C12.7992995,2.32510776 12.538039,2.06096365 12.2597616,1.81683045 C11.3598644,1.02739974 10.2727805,0.449084211 9.05356492,0.174934636 C5.69321459,-0.583479152 2.38691814,1.18648654 0.864400159,4.27617226 C0.723259439,4.56232839 0.595131693,4.85949052 0.487023907,5.16665811 C0.353891171,5.54486446 0.244782387,5.93807899 0.163701548,6.34430063 C-0.618077902,10.2884525 1.47100496,14.1665684 4.92044412,15.509301 C5.25077346,15.6383714 5.59411578,15.7454299 5.94846908,15.8254735 C5.95147207,15.8264741 5.95547607,15.8264741 5.95747806,15.8274746 C10.006515,16.7349697 13.9804772,13.9724625 14.8363305,9.65410645 C15.090584,8.37640934 15.0405341,7.10471551 14.7422366,5.9230708"></path></svg>
