<svg id="图层_1" data-name="图层 1" xmlns="http://www.w3.org/2000/svg" viewBox="0 0 1024 1024"><defs><style>.cls-1,.cls-2{fill:#81c93a;}.cls-2{opacity:0.5;isolation:isolate;}</style></defs><title>TDC 产品组件（多色入口icon）</title><polygon class="cls-1" points="333.013 179.595 512 77.316 690.987 179.595 690.987 377.759 761.304 416.114 761.304 141.241 512 0.608 262.696 141.241 262.696 416.114 281.873 409.722 333.013 377.759 333.013 179.595"/><polygon class="cls-1" points="665.418 403.329 512 486.43 358.582 403.329 294.658 441.684 512 563.139 729.342 435.291 665.418 403.329"/><polygon class="cls-1" points="421.899 812.443 479.43 844.405 479.43 614.279 268.481 492.823 268.481 550.354 421.899 639.848 421.899 812.443"/><polygon class="cls-1" points="242.911 946.684 70.316 844.405 70.316 639.848 236.519 537.57 236.519 460.861 0 595.101 0 882.76 242.911 1023.392 479.43 882.76 415.506 844.405 242.911 946.684"/><polygon class="cls-1" points="755.519 550.354 755.519 492.823 544.57 607.886 544.57 844.405 602.101 812.443 602.101 639.848 755.519 550.354"/><polygon class="cls-1" points="787.481 460.861 787.481 537.57 953.684 639.848 953.684 844.405 781.089 946.684 608.494 844.405 544.57 882.76 781.089 1023.392 1024 882.76 1024 595.101 787.481 460.861"/><polygon class="cls-1" points="281.873 409.722 333.013 377.759 333.013 377.759 281.873 409.722"/><polygon class="cls-2" points="281.873 409.722 333.013 377.759 333.013 377.759 281.873 409.722"/><polygon class="cls-1" points="601.494 844.405 531.177 882.76 537.57 882.76 601.494 844.405"/><polygon class="cls-2" points="601.494 844.405 531.177 882.76 537.57 882.76 601.494 844.405"/></svg>