<svg xmlns="http://www.w3.org/2000/svg" viewBox="0 0 16 16" fill="#51AB6E"><rect x="0.62798" y="7.90343" width="13.94541" height="0.25654"/><g opacity="0.5"><path d="M0,9.68338a.19618.19618,0,0,0,.00594-.02575A1.89088,1.89088,0,0,1,.0832,9.2218,7.52786,7.52786,0,0,1,.53983,8.051c.03467-.07231.53091.02278.519.04457-.413.736-.91325,1.6284-.11094,1.84631A2.09917,2.09917,0,0,0,1.4402,9.929a7.59918,7.59918,0,0,0,1.13711-.24565c.55568-.1565,1.09154-.34074,1.62048-.53587.73-.26744,1.44318-.55667,2.14743-.85481Q6.86672,8.0728,7.3803,7.845c.13768-.06141.34866.3338.214.39125-.86373.35956-1.73835.70822-2.62882,1.03707-.68147.25258-1.37186.49327-2.08106.70723-.36946.11094-.74387.21494-1.12819.30013-.209.04556-.42.08617-.6369.11193a2.59966,2.59966,0,0,1-.41205.02179.82888.82888,0,0,1-.47644-.13768A.51578.51578,0,0,1,.05448,10.041a.75086.75086,0,0,1-.04854-.23079C.005,9.79827.002,9.7854,0,9.77351Z"/><polygon points="6.003 7.943 6.371 7.961 3.565 9.67 3.279 9.603 6.003 7.943"/><polygon points="4.83 7.93 5.116 7.998 1.955 10.114 1.669 10.048 4.83 7.93"/><polygon points="3.656 7.909 3.941 7.976 0.623 10.189 0.528 9.994 3.656 7.909"/><polygon points="2.454 7.934 2.741 8 0.354 9.505 0.198 9.343 2.454 7.934"/></g><g opacity="0.5"><path d="M15.25982,6.33842a.24133.24133,0,0,0-.00594.02575A1.88328,1.88328,0,0,1,15.17563,6.8a8.01108,8.01108,0,0,1-.74486,1.68189c-.21989.525-.34569-.38531-.26942-.51408.39323-.66562.941-1.672.12679-1.88792a2.2085,2.2085,0,0,0-.50516.01288,7.93743,7.93743,0,0,0-1.16682.24565c-.57053.1565-1.12027.34074-1.66307.53587-.74883.26744-1.48082.55568-2.20389.85382q-.36253.15006-.72208.3031c-.25555.109-.69732-.1882-.55865-.24565q1.32828-.54082,2.69617-1.03806c.6993-.25258,1.40752-.49327,2.13554-.70723.37937-.11193.76269-.21494,1.15791-.30012.21494-.04655.43186-.08617.65374-.11193a2.86794,2.86794,0,0,1,.42295-.02179.86358.86358,0,0,1,.48832.13768.51444.51444,0,0,1,.18126.23574.75245.75245,0,0,1,.04953.23079c.001.01189.004.02476.00594.03665Z"/><polygon points="9.357 8.053 9.064 7.987 11.942 6.278 12.236 6.345 9.357 8.053"/><polygon points="10.648 8.042 10.355 7.975 13.597 5.858 13.891 5.924 10.648 8.042"/><polygon points="11.729 8.112 11.435 8.046 14.841 5.833 14.938 6.027 11.729 8.112"/><polygon points="12.839 8.162 12.546 8.095 14.994 6.59 15.154 6.753 12.839 8.162"/></g><rect x="2.10979" y="3.78983" width="0.29121" height="4.24137"/><rect x="3.29444" y="1.9138" width="0.29121" height="6.1174"/><rect x="4.48008" y="1.9138" width="0.29121" height="6.1174"/><rect x="5.66474" y="3.41146" width="0.29121" height="4.61975"/><path d="M7.40407,8.11738c-.06735-.22287-.1357-.44573-.207-.66761A23.13094,23.13094,0,0,0,6.18079,4.80709,9.48063,9.48063,0,0,0,5.428,3.43622a3.50635,3.50635,0,0,0-.52992-.63,1.55677,1.55677,0,0,0-.33875-.23871.80171.80171,0,0,0-.71119-.01981,1.5858,1.5858,0,0,0-.49625.35262,4.22893,4.22893,0,0,0-.61709.82212,11.50585,11.50585,0,0,0-.81717,1.70566c-.17136.43186-.413,1.06678-.58242,1.61255C1.145,7.6558,1.03707,8.16,1.03707,8.16H.48832s.1773-.59233.214-.71515c.11688-.38432.23673-.76765.36748-1.149a22.20934,22.20934,0,0,1,1.043-2.5783,9.18925,9.18925,0,0,1,.79934-1.3778,3.17594,3.17594,0,0,1,.62006-.67553,1.16648,1.16648,0,0,1,.54775-.25753l.105-.01189h.00792c.07132.01189.14462.01783.214.03665a1.31922,1.31922,0,0,1,.51507.29517,3.5969,3.5969,0,0,1,.59035.67751A9.653,9.653,0,0,1,6.27687,3.7413,24.50194,24.50194,0,0,1,7.37733,6.485c.18523.54181.33182,1.09154.49625,1.63732"/><path d="M11.61572,13.30182a1.34653,1.34653,0,0,1-.2605.15045.80335.80335,0,0,1-.63293-.00018V7.96783h-.29218V13.2807c-.04022-.03088-.08759-.054-.12482-.088a3.50839,3.50839,0,0,1-.53-.62994c-.08746-.12811-.16064-.26233-.23871-.39447V7.96783h-.2912v3.6748c-.07581-.14972-.1535-.29858-.22382-.45074a23.10577,23.10577,0,0,1-1.0163-2.64166c-.07129-.22284-.13965-.44574-.207-.66858L7.3288,7.87671c.16443.54572.311,1.09546.49823,1.63831a24.51091,24.51091,0,0,0,1.10046,2.74371,9.64773,9.64773,0,0,0,.76465,1.33716,3.59863,3.59863,0,0,0,.58936.67749,1.31252,1.31252,0,0,0,.51508.29523c.06934.01782.14264.02472.21393.03662h.00793c.03571-.004.07135-.00793.106-.01288a1.16638,1.16638,0,0,0,.54773-.25751,3.15766,3.15766,0,0,0,.59991-.64825,2.36119,2.36119,0,0,1-.65637-.42352Z"/><path d="M13.09161,7.96783h-.29126V9.166a2.39294,2.39294,0,0,1,.29126-.02936Z"/><path d="M14.5011,8.55615c.106-.32983.24066-.65173.24066-.65173h-.58337s-.08716.33777-.2298.79932c-.04858.15668-.10333.32782-.16077.50354a2.34205,2.34205,0,0,1,.4696.17548C14.32715,9.10767,14.417,8.83264,14.5011,8.55615Z"/><path d="M11.90692,7.96783h-.2912V9.73425a2.368,2.368,0,0,1,.2912-.22723Z"/><path d="M15.00861,13l-.32758-.32758a1.93779,1.93779,0,0,0-.1651-2.55121,1.9209,1.9209,0,0,0-2.609-.10852c-.044.03687-.09155.0672-.13287.10852a2.018,2.018,0,0,0-.15833,2.5481,1.91831,1.91831,0,0,0,.15833.19385c.0415.0415.08868.07306.13287.11l.02966.0246a1.91266,1.91266,0,0,0,.57581.31915,1.9341,1.9341,0,0,0,1.83765-.307l.323.32294.99274.99274L16,13.99139Zm-.75891-.40314a1.56279,1.56279,0,0,1-2.07294.11151,1.5838,1.5838,0,0,1-.561-.903V11.179a1.56174,1.56174,0,1,1,2.634,1.41791Z"/></svg>
