<?xml version="1.0" encoding="utf-8"?>
<!-- Generator: Adobe Illustrator 17.0.0, SVG Export Plug-In . SVG Version: 6.00 Build 0)  -->
<!DOCTYPE svg PUBLIC "-//W3C//DTD SVG 1.1//EN" "http://www.w3.org/Graphics/SVG/1.1/DTD/svg11.dtd">
<svg version="1.1" id="图层_1" xmlns="http://www.w3.org/2000/svg" xmlns:xlink="http://www.w3.org/1999/xlink" x="0px" y="0px"
	 width="16px" height="16px" viewBox="0 0 16 16" enable-background="new 0 0 16 16" xml:space="preserve">
<path fill="#616B77" d="M4.817,4.817c1.49-1.49,3.753-1.708,5.488-0.687l1.646-1.646C9.775,0.935,6.892,0.827,4.613,2.152
	c-0.045-0.516-0.255-1.02-0.649-1.414c-0.891-0.891-2.335-0.891-3.226,0s-0.891,2.335,0,3.226c0.395,0.395,0.898,0.604,1.414,0.649
	c-1.325,2.28-1.216,5.162,0.333,7.338l1.646-1.646C3.109,8.57,3.328,6.307,4.817,4.817z M15.262,12.036
	c-0.381-0.381-0.864-0.589-1.36-0.644c1.306-2.275,1.192-5.142-0.351-7.308L11.905,5.73c1.021,1.735,0.803,3.998-0.687,5.488
	c-1.489,1.49-3.753,1.708-5.488,0.687l-1.646,1.646c2.166,1.542,5.033,1.657,7.308,0.351c0.055,0.497,0.263,0.98,0.644,1.36
	c0.891,0.891,2.335,0.891,3.226,0S16.153,12.927,15.262,12.036z"/>
</svg>
