<svg id="图层_1" data-name="图层 1" xmlns="http://www.w3.org/2000/svg" viewBox="0 0 16 16"><defs><style>.cls-1{fill:#4487d0;}</style></defs><title>inceptorgateway&amp;amp; Ladder&amp;amp;dbservice</title><path class="cls-1" d="M3.325,7.044a.5.5,0,0,1-.294-.9L5.272,4.5a1.549,1.549,0,0,1,1.746-.05l2.16,1.4a.424.424,0,0,0,.54-.074l3.435-3.862a.5.5,0,0,1,.748.665L10.466,6.44a1.409,1.409,0,0,1-1.831.248L6.475,5.294a.537.537,0,0,0-.613.018L3.62,6.947A.49.49,0,0,1,3.325,7.044Z"/><path class="cls-1" d="M3.325,13.585a.5.5,0,0,1-.5-.5V8.543a.5.5,0,0,1,1,0v4.542A.5.5,0,0,1,3.325,13.585Z"/><path class="cls-1" d="M6.568,13.585a.5.5,0,0,1-.5-.5V7.543a.5.5,0,0,1,1,0v5.542A.5.5,0,0,1,6.568,13.585Z"/><path class="cls-1" d="M9.569,13.585a.5.5,0,0,1-.5-.5V9.543a.5.5,0,0,1,1,0v3.542A.5.5,0,0,1,9.569,13.585Z"/><path class="cls-1" d="M12.736,13.585a.5.5,0,0,1-.5-.5V6.543a.5.5,0,1,1,1,0v6.542A.5.5,0,0,1,12.736,13.585Z"/><polygon class="cls-1" points="14.877 14.864 1.123 14.864 1.57 10.543 0.651 10.543 0.006 15.988 15.994 15.988 15.349 10.543 14.43 10.543 14.877 14.864"/></svg>