<?xml version="1.0" encoding="utf-8"?>
<!-- Generator: Adobe Illustrator 23.0.1, SVG Export Plug-In . SVG Version: 6.00 Build 0)  -->
<svg version="1.1" id="图层_1" xmlns="http://www.w3.org/2000/svg" xmlns:xlink="http://www.w3.org/1999/xlink" x="0px" y="0px"
	 viewBox="0 0 16 16" style="enable-background:new 0 0 16 16;" xml:space="preserve">
<style type="text/css">
	.st0{fill:#EC5353;}
	.st1{fill:#616B77;}
	.st2{fill:#FFFFFF;}
</style>
<path class="st0" d="M7.949,16h0.103c0.984-0.016,1.809-0.865,1.932-1.993H6.016C6.14,15.135,6.965,15.986,7.949,16L7.949,16z"/>
<path class="st0" d="M13.256,9.711V6.086c0.012-2.035-1.44-3.807-3.497-4.266V1.733C9.775,1.12,9.444,0.546,8.896,0.233
	c-0.55-0.311-1.231-0.311-1.781,0S6.236,1.118,6.252,1.733V1.82C4.188,2.276,2.73,4.05,2.742,6.086v3.625
	c-1.054,0.798-1.69,2-1.745,3.289h14.003C14.948,11.711,14.31,10.509,13.256,9.711L13.256,9.711z"/>
</svg>
