<svg xmlns="http://www.w3.org/2000/svg" viewBox="0 0 16 16" fill="#0093E1"><g><path d="M9.7,11.2L8.1,9.7c0.2-0.3,0.4-0.7,0.4-1l1.4,0l0,0c0.3,0.7,1,1.2,1.8,1.2c1,0,1.9-0.8,1.9-1.8	s-0.8-1.8-1.9-1.8c-0.8,0-1.5,0.5-1.8,1.2H8.6C8.5,7,8.3,6.6,8.1,6.3l1.6-1.6c0.2,0.1,0.5,0.2,0.8,0.2c1,0,1.9-0.8,1.9-1.8	s-0.8-1.8-1.9-1.8S8.6,2.1,8.6,3.1c0,0.3,0.1,0.6,0.2,0.8L7.2,5.4C6.9,5.2,6.5,5.1,6.1,5V3.6c0.7-0.3,1.3-0.9,1.3-1.7	c0-1-0.8-1.8-1.9-1.8S3.6,0.8,3.6,1.8c0,0.8,0.5,1.5,1.3,1.7V5C3.4,5.3,2.3,6.5,2.3,8s1.1,2.7,2.5,3v1.4c-0.7,0.3-1.3,0.9-1.3,1.7	c0,1,0.8,1.8,1.9,1.8s1.9-0.8,1.9-1.8c0-0.8-0.5-1.5-1.3-1.7V11c0.4-0.1,0.7-0.2,1.1-0.4l1.6,1.6 M11.8,7.4c0.3,0,0.6,0.3,0.6,0.6	c0,0.3-0.3,0.6-0.6,0.6c-0.3,0-0.6-0.3-0.6-0.6C11.1,7.7,11.4,7.4,11.8,7.4z M10.5,2.5c0.3,0,0.6,0.3,0.6,0.6	c0,0.3-0.3,0.6-0.6,0.6c-0.3,0-0.6-0.3-0.6-0.6S10.2,2.5,10.5,2.5z M5.5,1.2c0.3,0,0.6,0.3,0.6,0.6c0,0.3-0.3,0.6-0.6,0.6	c-0.3,0-0.6-0.3-0.6-0.6S5.1,1.2,5.5,1.2z M5.5,14.8c-0.3,0-0.6-0.3-0.6-0.6c0-0.3,0.3-0.6,0.6-0.6c0.3,0,0.6,0.3,0.6,0.6	C6.1,14.5,5.8,14.8,5.5,14.8z M5.5,9.8C4.4,9.8,3.6,9,3.6,8s0.8-1.8,1.9-1.8c0.4,0,0.8,0.1,1.1,0.3L7,6.9C7.2,7.2,7.4,7.6,7.4,8	C7.4,9,6.5,9.8,5.5,9.8z"/><g><path d="M12.5,12.4c0,0-0.1-0.1-0.1-0.1l-0.5,0.1c-0.1-0.1-0.2-0.2-0.3-0.3l0.1-0.5c0,0,0-0.1-0.1-0.1l-0.8-0.2	c0,0-0.1,0-0.1,0.1l-0.2,0.5c-0.1,0-0.3,0-0.4,0.1l-0.4-0.3c0,0-0.1,0-0.1,0l-0.6,0.5c0,0,0,0.1,0,0.1l0.3,0.4	c0,0.1,0,0.1-0.1,0.2c0,0.1,0,0.1,0,0.2l-0.5,0.2c0,0-0.1,0.1-0.1,0.1l0.2,0.8c0,0,0.1,0.1,0.1,0.1l0.5-0.1	c0.1,0.1,0.2,0.2,0.3,0.3l-0.1,0.5c0,0,0,0.1,0.1,0.1l0.8,0.2c0,0,0.1,0,0.1-0.1l0.2-0.5c0.1,0,0.3,0,0.4-0.1l0.4,0.3	c0,0,0.1,0,0.1,0l0.6-0.5c0,0,0-0.1,0-0.1l-0.3-0.4c0-0.1,0-0.1,0.1-0.2c0-0.1,0-0.1,0-0.2l0.5-0.2c0,0,0.1-0.1,0.1-0.1L12.5,12.4	z M11.4,13.4c-0.1,0.4-0.5,0.6-0.9,0.5S10,13.4,10.1,13c0.1-0.4,0.5-0.6,0.9-0.5C11.3,12.7,11.5,13.1,11.4,13.4z"/></g></g></svg>
