<?xml version="1.0" encoding="utf-8"?>
<!-- Generator: Adobe Illustrator 23.0.2, SVG Export Plug-In . SVG Version: 6.00 Build 0)  -->
<svg version="1.1" id="图层_1" xmlns="http://www.w3.org/2000/svg" xmlns:xlink="http://www.w3.org/1999/xlink" x="0px" y="0px"
	 viewBox="0 0 48 48" style="enable-background:new 0 0 48 48;" xml:space="preserve">
<style type="text/css">
	.st0{fill:#1D96F3;}
	.st1{fill:#6FD6E5;}
	.st2{fill:none;stroke:#000000;stroke-width:2;stroke-miterlimit:10;}
	.st3{fill:none;stroke:#000000;stroke-width:2;stroke-linecap:round;stroke-miterlimit:10;}
</style>
<g>
	<g>
		<path class="st0" d="M24,44C11.869,44,2,34.131,2,22S11.869,0,24,0s22,9.869,22,22S36.131,44,24,44z M24,2C12.972,2,4,10.972,4,22
			c0,11.028,8.972,20,20,20s20-8.972,20-20C44,10.972,35.028,2,24,2z"/>
	</g>
	<g>
		<path class="st0" d="M3,48c-0.553,0-1-0.447-1-1V22c0-0.552,0.447-1,1-1s1,0.448,1,1v25C4,47.553,3.553,48,3,48z"/>
	</g>
	<g>
		<path class="st0" d="M24,36c-7.72,0-14-6.28-14-14S16.28,8,24,8h1v15h12.997l-0.179,1.153C36.756,31.018,30.944,36,24,36z
			 M23,10.042C16.85,10.551,12,15.72,12,22c0,6.617,5.383,12,12,12c5.555,0,10.264-3.721,11.606-9H23V10.042z"/>
	</g>
	<g>
		<path class="st1" d="M38.713,22H26V7.308h1c6.617,0,12,5.383,12,12c0,0.569-0.051,1.173-0.155,1.846L38.713,22z M28,20h8.971
			C36.99,19.758,37,19.529,37,19.308c0-5.176-3.954-9.447-9-9.95V20z"/>
	</g>
</g>
</svg>
