<svg id="图层_1" data-name="图层 1" xmlns="http://www.w3.org/2000/svg" viewBox="0 0 1024 1024"><defs><style>.cls-1{fill:#fb7069;}</style></defs><title>TDC 产品组件（多色入口icon）</title><path class="cls-1" d="M585.66,789.663c-60.332,31.486-93.62,31.1-141.268,8.306C396.938,775.24.564,609.634.564,609.634h0V729.718c0,10.367,14.423,21.248,41.273,34.126,54.215,25.948,355.1,147.32,402.426,170.178,47.454,22.729,80.936,22.858,141.268-8.306,60.332-31.486,342.8-147.449,397.4-176.1h0c27.751-14.423,40.049-25.82,40.049-35.929V595.146h-.129c-.129-.064-377.122,162.967-437.2,194.517Z"/><path class="cls-1" d="M585.66,621.03c-60.332,31.486-93.62,31.1-141.268,8.306C396.938,606.479.5,440.743.5,440.743h0V560.828c0,10.367,14.423,21.248,41.273,34.126C95.988,621.03,396.874,742.4,444.2,765.26c47.454,22.729,80.936,22.858,141.268-8.306,60.332-31.486,342.8-147.449,397.4-176.1,27.751-14.423,40.049-25.82,40.049-35.929V426.385h-.129c-.064,0-377.057,163.031-437.132,194.645Z"/><path class="cls-1" d="M1023.114,268.376c.515-10.366-13.328-19.574-40.565-29.554C929.364,219.248,648.439,107.47,594.61,87.832c-53.957-19.7-75.849-18.8-139.014,3.67C392.431,114.038,93.219,231.546,40.034,252.408,13.184,262.839.114,272.69.886,283.186V401.209S397,568.1,444.714,590.832c47.454,22.793,80.936,22.922,141.332-8.306,60.2-31.679,437.454-197.414,437.454-197.414l-.386-116.736Zm-132.382,3.155L735.363,332.764,595.318,277.391,750.43,216.029l140.3,55.5ZM603.818,329.738,532.089,434.691l-165.22-68.509,236.949-36.444ZM479.42,170.184,456.5,127.817l71.471,27.88,67.286-22.15L576.968,177.2l68.638,25.82-88.6,9.079-19.96,47.969L505.11,206.757,402.8,197.678l76.622-27.494Zm-176.488,59.43c69.926,0,126.716,21.892,126.716,49.128,0,26.979-56.79,49.128-126.716,49.128s-126.716-21.892-126.716-49.128c.129-26.85,56.79-49.128,126.716-49.128Z"/></svg>