<?xml version="1.0" encoding="utf-8"?>
<!-- Generator: Adobe Illustrator 21.0.0, SVG Export Plug-In . SVG Version: 6.00 Build 0)  -->
<svg version="1.1" id="图层_1" xmlns="http://www.w3.org/2000/svg" xmlns:xlink="http://www.w3.org/1999/xlink" x="0px" y="0px"
	 viewBox="0 0 16 16" style="enable-background:new 0 0 16 16;" xml:space="preserve">
<style type="text/css">
	.st0{fill:#616B77;}
	.st1{fill:#838384;}
	.st2{opacity:0.35;fill:#616B77;enable-background:new    ;}
	.st3{fill:#4980BB;}
	.st4{opacity:0.35;fill:#4E78A6;enable-background:new    ;}
	.st5{fill:#666666;}
</style>
<path class="st3" d="M7.7,10.9V8.4c0-0.3-0.2-0.6-0.5-0.6H4.8c-0.2,0-0.3,0-0.4-0.1L4.2,7.4C4.1,7.3,4.1,7.2,4.1,7.1V4.7
	c0-0.3-0.3-0.5-0.6-0.5H1c-0.3,0-0.7,0.2-0.7,0.5v2.5c0,0.3,0.4,0.5,0.7,0.5h2.5c0.2,0,0.3,0.1,0.4,0.2l0,0C4,8.1,4.1,8.2,4.1,8.4
	v2.5c0,0.3,0.2,0.6,0.5,0.6h2.5C7.4,11.6,7.7,11.2,7.7,10.9L7.7,10.9z"/>
<path class="st3" d="M15.6,7.8h-2.3c-0.2,0-0.3-0.1-0.4-0.2l-0.2-0.2c-0.1-0.1-0.2-0.2-0.2-0.4V4.7c0-0.3-0.2-0.5-0.5-0.5H9.4
	c-0.3,0-0.5,0.2-0.5,0.5v2.5c0,0.3,0.2,0.5,0.5,0.5h2.5c0.2,0,0.3,0.1,0.4,0.2h0c0.1,0.1,0.2,0.2,0.2,0.4v2.5c0,0.3,0.3,0.5,0.6,0.5
	h2.5c0.3,0,0.4-0.2,0.4-0.5V8.4C16,8.1,15.9,7.8,15.6,7.8L15.6,7.8z"/>
<path class="st4" d="M8.3,6.7V4.3c0-0.2,0.1-0.3,0.2-0.4l0.2-0.2c0.1-0.1,0.2-0.2,0.4-0.2h2.3c0.3,0,0.5-0.2,0.5-0.5V0.5
	c0-0.3-0.2-0.5-0.5-0.5H8.9C8.6,0,8.3,0.2,8.3,0.5V3c0,0.2-0.1,0.3-0.2,0.4v0C8,3.5,7.9,3.6,7.7,3.6H5.2c-0.3,0-0.5,0.3-0.5,0.6v2.5
	c0,0.3,0.2,0.4,0.5,0.4h2.5C8,7.1,8.3,7,8.3,6.7L8.3,6.7z"/>
<path class="st4" d="M8.3,15.1v-2.3c0-0.2,0.1-0.3,0.2-0.4l0.2-0.2C8.8,12.1,8.9,12,9.1,12h2.3c0.3,0,0.5-0.2,0.5-0.5V9
	c0-0.3-0.2-0.5-0.5-0.5H8.9C8.6,8.5,8.3,8.6,8.3,9v2.5c0,0.2-0.1,0.3-0.2,0.4v0C8,12,7.9,12,7.7,12H5.2c-0.3,0-0.5,0.3-0.5,0.6v2.5
	c0,0.3,0.2,0.4,0.5,0.4h2.5C8,15.6,8.3,15.4,8.3,15.1L8.3,15.1z"/>
</svg>
