<svg id="图层_1" data-name="图层 1" xmlns="http://www.w3.org/2000/svg" viewBox="0 0 16 16"><defs><style>.cls-1{fill:#4487d0;}.cls-2{fill:#fff;}</style></defs><title>inceptorgateway&amp;amp; Ladder&amp;amp;dbservice</title><rect class="cls-1" width="15.98" height="15.98" rx="2"/><circle class="cls-2" cx="7.94" cy="2.501" r="1.499"/><path class="cls-2" d="M3.6,8.489A4.4,4.4,0,0,1,3.55,8,4.419,4.419,0,0,1,6.4,3.859,2.043,2.043,0,0,1,5.88,2.5c0-.016,0-.03,0-.045A5.886,5.886,0,0,0,2.148,9.043a2.043,2.043,0,0,1,1.4-.559C3.567,8.484,3.583,8.488,3.6,8.489Z"/><path class="cls-2" d="M10.677,11.532a4.362,4.362,0,0,1-5.337.013,2.052,2.052,0,0,1-1.21.965,5.919,5.919,0,0,0,7.776-.032A2.056,2.056,0,0,1,10.677,11.532Z"/><path class="cls-2" d="M9.5,3.829A4.445,4.445,0,0,1,12.45,8a4.334,4.334,0,0,1-.045.444c.015,0,.029,0,.045,0A2.043,2.043,0,0,1,13.858,9,5.892,5.892,0,0,0,9.99,2.4c0,.034.01.066.01.1A2.04,2.04,0,0,1,9.5,3.829Z"/><circle class="cls-2" cx="3.5" cy="10.5" r="1.499"/><circle class="cls-2" cx="12.5" cy="10.5" r="1.499"/></svg>