<svg xmlns="http://www.w3.org/2000/svg" viewBox="0 0 16 16" fill="#51AB6E"><g><path fill-rule="evenodd" clip-rule="evenodd" d="M12.804,11.355c-0.187,0.075-0.379,0.127-0.582,0.123 c-0.173-0.004-0.339-0.047-0.501-0.108c-0.026-0.01-0.027-0.028-0.027-0.05c0-0.136-0.002-0.271,0-0.407 c0-0.033-0.01-0.053-0.038-0.071c-0.592-0.39-1.183-0.781-1.774-1.173c-0.024-0.016-0.044-0.021-0.073-0.01 C9.412,9.804,9.005,9.913,8.586,9.967c-0.191,0.025-0.384,0.044-0.576,0.047c-0.268,0.004-0.535-0.027-0.8-0.076 C6.859,9.874,6.514,9.782,6.178,9.659C6.161,9.654,6.135,9.661,6.118,9.672c-0.477,0.316-0.953,0.632-1.43,0.948 c-0.114,0.076-0.228,0.153-0.343,0.227c-0.03,0.019-0.04,0.04-0.04,0.075c0.002,0.133,0.001,0.266,0.004,0.399 c0.001,0.034-0.011,0.049-0.042,0.061c-0.157,0.058-0.317,0.1-0.485,0.105c-0.188,0.005-0.368-0.039-0.543-0.105 c-0.014-0.006-0.029-0.011-0.043-0.017c0-0.325,0.011-0.993,0.01-1.002C3.185,9.799,3.334,9.269,3.525,8.749 c0.067-0.183,0.144-0.363,0.224-0.544c0.182,0.374,0.323,0.76,0.43,1.159c0.006,0.005,0.012,0.01,0.018,0.014 c0.007-0.015,0.012-0.031,0.023-0.043C4.747,8.72,6.02,7.243,6.126,7.116c0.016-0.019,0.027-0.049,0.028-0.074 c0.002-0.307-0.001-0.613,0.003-0.919c0.004-0.299,0.03-0.597,0.071-0.894c0.11-0.8,0.319-1.574,0.579-2.336 c0.319-0.938,0.707-1.846,1.161-2.727c0.006-0.012,0.013-0.024,0.023-0.042c0.01,0.016,0.018,0.027,0.024,0.038 C8.643,1.386,9.16,2.653,9.514,3.984C9.619,4.378,9.701,4.777,9.76,5.18c0.064,0.43,0.085,0.862,0.077,1.296 C9.835,6.664,9.836,6.852,9.839,7.039c0,0.024,0.01,0.053,0.025,0.071c0.638,0.741,1.278,1.481,1.917,2.221 c0.009,0.01,0.019,0.02,0.035,0.037c0.109-0.407,0.25-0.794,0.425-1.176c0.008,0.014,0.013,0.021,0.017,0.03 c0.204,0.449,0.37,0.91,0.47,1.393c0.048,0.236,0.071,0.749,0.075,0.765C12.804,10.706,12.804,11.03,12.804,11.355z M8.734,4.468 c0,0.409-0.332,0.741-0.741,0.741c-0.409,0-0.741-0.332-0.741-0.741s0.332-0.741,0.741-0.741C8.402,3.727,8.734,4.059,8.734,4.468z"/><path fill-rule="evenodd" clip-rule="evenodd" d="M9.136,12.294c0.042,0.134,0.086,0.268,0.125,0.403 c0.11,0.388,0.172,0.784,0.146,1.188C9.356,14.682,9,15.302,8.319,15.728c-0.076,0.047-0.159,0.082-0.236,0.127 c-0.055,0.032-0.101,0.025-0.156-0.004c-0.36-0.19-0.652-0.456-0.874-0.797c-0.191-0.293-0.307-0.616-0.361-0.961 c-0.048-0.306-0.045-0.612-0.009-0.92c0.033-0.286,0.098-0.566,0.181-0.841c0.001-0.004,0.004-0.008,0.011-0.02 c-0.007,0.069-0.013,0.129-0.019,0.188c-0.021,0.201-0.023,0.402-0.008,0.603c0.02,0.271,0.076,0.533,0.19,0.781 c0.187,0.408,0.479,0.71,0.898,0.885c0.048,0.02,0.091,0.02,0.139,0c0.437-0.179,0.74-0.492,0.927-0.922 c0.091-0.209,0.139-0.429,0.162-0.656c0.03-0.293,0.012-0.583-0.034-0.873c-0.001-0.008-0.001-0.016-0.001-0.023 C9.13,12.295,9.133,12.295,9.136,12.294z"/><path fill-rule="evenodd" clip-rule="evenodd" d="M9.838,10.027c0.001,0.019,0.003,0.032,0.003,0.046 c0.001,0.21,0.001,0.42,0.004,0.629c0,0.034-0.01,0.05-0.042,0.061c-0.357,0.127-0.721,0.225-1.095,0.288 c-0.313,0.052-0.627,0.076-0.944,0.056c-0.283-0.018-0.564-0.057-0.839-0.129c-0.244-0.064-0.485-0.142-0.727-0.213 c-0.024-0.007-0.042-0.016-0.042-0.047c0.001-0.221,0-0.442,0-0.663c0-0.007,0.002-0.014,0.004-0.026 c0.015,0.004,0.027,0.008,0.04,0.012c0.366,0.131,0.741,0.227,1.125,0.289c0.261,0.042,0.524,0.067,0.789,0.058 c0.449-0.015,0.887-0.099,1.316-0.228c0.127-0.038,0.252-0.083,0.377-0.125C9.816,10.033,9.824,10.031,9.838,10.027z"/><path fill-rule="evenodd" clip-rule="evenodd" d="M8.002,14.041c-0.007-0.012-0.013-0.02-0.017-0.028 c-0.233-0.479-0.449-0.965-0.607-1.474c-0.049-0.16-0.091-0.322-0.109-0.489C7.265,12.022,7.271,12.011,7.296,12 c0.17-0.071,0.346-0.116,0.53-0.132c0.302-0.027,0.593,0.013,0.874,0.129c0.025,0.01,0.036,0.02,0.032,0.051 c-0.029,0.251-0.104,0.491-0.187,0.728c-0.148,0.422-0.329,0.831-0.524,1.233C8.016,14.019,8.01,14.028,8.002,14.041z"/></g></svg>
