<svg xmlns="http://www.w3.org/2000/svg" viewBox="0 0 16 16" fill="#F95B58"><path d="M12.204,4.189c-0.375-0.746-1.144-1.173-1.95-1.173c-0.345,0-0.699,0.079-1.032,0.244 C8.53,3.604,8.088,4.244,7.984,4.935V3.171c0-1.191-1.005-2.157-2.245-2.157c-0.705,0-1.335,0.312-1.746,0.801 C3.581,1.326,2.951,1.014,2.246,1.014C1.006,1.014,0,1.98,0,3.171v10.817l0,0v0.998l0,0h3.493h0.998h3.492h7.984l0,0H16v-0.65 v-0.564L12.204,4.189L12.204,4.189z M9.019,4.886C9.124,4.568,9.354,4.305,9.665,4.15c0.186-0.092,0.383-0.142,0.586-0.142l0,0l0,0 c0.445,0,0.843,0.228,1.044,0.594l3.707,9.355v0.025h-2.727L9.117,5.828L9.098,5.782L9.076,5.739 C8.944,5.476,8.923,5.173,9.019,4.886L9.019,4.886z M8.184,6.188l3.019,7.8H7.984V5.563C8.017,5.775,8.082,5.986,8.184,6.188 L8.184,6.188z M0.998,13.988V3.171c0-0.639,0.56-1.159,1.248-1.159c0.684,0,1.24,0.513,1.247,1.147c0,0.004,0,0.008,0,0.012v10.817 L0.998,13.988L0.998,13.988L0.998,13.988z M4.491,13.988V3.171c0-0.004,0-0.008,0-0.012c0.007-0.633,0.564-1.147,1.247-1.147 c0.688,0,1.248,0.52,1.248,1.159v10.817L4.491,13.988L4.491,13.988L4.491,13.988z"/></svg>
