<?xml version="1.0" encoding="utf-8"?>
<!-- Generator: Adobe Illustrator 21.0.0, SVG Export Plug-In . SVG Version: 6.00 Build 0)  -->
<svg version="1.1" id="图层_1" xmlns="http://www.w3.org/2000/svg" xmlns:xlink="http://www.w3.org/1999/xlink" x="0px" y="0px"
	 viewBox="0 0 1024 1024" style="enable-background:new 0 0 1024 1024;" xml:space="preserve">
<style type="text/css">
	.st0{fill:#4DADF5;}
</style>
<g>
	<g>
		<polygon class="st0" points="450,157 315,177 291,157 400,31 502,32 583,200 688,266 787,440 696.5,734.5 545.5,925.5 558,991 
			399,991 364,931 504,584 354,760 301,676 163,935 184,991 30,991 0,929 176.5,440.5 175,332 273,239 290,273 267,334.5 361,416.5 
			496,329 		"/>
		<polygon class="st0" points="816,463 993,664.5 1024,993 876,993 829,952 807,860 684,802 730,751 		"/>
		<polygon class="st0" points="664,835 786,893 714,991 598,991 586.6,931.1 		"/>
	</g>
</g>
</svg>
