<svg id="图层_1" data-name="图层 1" xmlns="http://www.w3.org/2000/svg" viewBox="0 0 1024 1024"><defs><style>.cls-1{fill:#34d1cb;}</style></defs><title>TDC 产品组件（多色入口icon）</title><path class="cls-1" d="M78.724,482l85.766-44.677a132.4,132.4,0,0,0,70.113,135.4l-85.9,44.677A76.208,76.208,0,0,1,78.724,482Z"/><path class="cls-1" d="M910.756,309.1c-58.112-1.37-110.942-38.872-144.075-102.985C736.875,148.39,730.418,79.777,754.289,32.426L555.037,138.215c-21.067,16.632-35.024,40.894-41.285,68.744l-42.394,21.849L251.235,342.75a120.764,120.764,0,0,0-51.851,162.663c21.654,41.807,64.374,65.026,108.464,64.569,16.371,0,49.96-12.783,88.114-30.132,0-.783-.261-1.5-.261-2.348,0-1.5.391-2.87.457-4.3,0-.522-.2-1.044-.2-1.565,0-.848-.261-1.565-.261-2.348A88.1,88.1,0,0,1,538.014,459.5c2.022,1.565,3.587,3.522,5.479,5.283,22.958-12.588,38.481-21.393,38.481-21.393.13,0,.2-.065.326-.065l52.047-27c21.784,6.261,43.959,6.783,64.83.652Z"/><path class="cls-1" d="M960.455,278.442c39.263-34.567,33.459-121.769-12.849-194.686C901.3,10.772,831.9-20.338,792.77,14.294c-39.263,34.567-33.459,121.769,12.849,194.686C851.926,281.964,921.257,313.074,960.455,278.442ZM830.338,187.2c-32.806-51.525-39.2-113.812-14.088-135.922,25.045-22.11,73.9,2.674,106.637,54.264,32.676,51.525,39.133,113.746,14.153,135.922C911.865,263.571,863.079,238.787,830.338,187.2Z"/><circle class="cls-1" cx="495.033" cy="551.133" r="77.679"/><polygon class="cls-1" points="341.11 1023.86 392.57 1023.86 495.099 619.616 446.313 608.137 341.11 1023.86"/><polygon class="cls-1" points="652.087 1023.86 600.627 1023.86 495.099 619.616 543.819 608.137 652.087 1023.86"/></svg>