<svg id="图层_1" data-name="图层 1" xmlns="http://www.w3.org/2000/svg" viewBox="0 0 16 16"><defs><style>.cls-1{fill:#4487d0;}.cls-2{fill:none;}</style></defs><title>inceptorgateway&amp;amp; Ladder&amp;amp;dbservice</title><path class="cls-1" d="M0,.044v4H14v-4Zm2.5,2.5a.5.5,0,1,1,.5-.5A.5.5,0,0,1,2.5,2.544Z"/><path class="cls-2" d="M2.5,11.544a.5.5,0,1,0,.5.5A.5.5,0,0,0,2.5,11.544Z"/><path class="cls-2" d="M2.5,6.544a.5.5,0,1,0,.5.5A.5.5,0,0,0,2.5,6.544Z"/><path class="cls-2" d="M2.5,6.544a.5.5,0,1,0,.5.5A.5.5,0,0,0,2.5,6.544Z"/><path class="cls-2" d="M2.5,11.544a.5.5,0,1,0,.5.5A.5.5,0,0,0,2.5,11.544Z"/><path class="cls-1" d="M12,7.044a4.971,4.971,0,0,1,2,.422V5.044H0v4H8.022A4.978,4.978,0,0,1,12,7.044Zm-9.5.5a.5.5,0,1,1,.5-.5A.5.5,0,0,1,2.5,7.544Z"/><path class="cls-1" d="M7.422,10.044H0v4H7.423a4.948,4.948,0,0,1,0-4ZM2.5,12.544a.5.5,0,1,1,.5-.5A.5.5,0,0,1,2.5,12.544Z"/><path class="cls-1" d="M9.258,12.142a2.736,2.736,0,0,1,4.286-2.665l-.589.955,2.642-.011-.944-2.739-.484.783a4.08,4.08,0,0,0-3.628-.4,3.915,3.915,0,0,0-2.466,4.079Zm5.535-.683a2.742,2.742,0,0,1-1.709,2.985,2.781,2.781,0,0,1-2.461-.236l.533-.862-2.841-.167L9.517,16l.5-.816a3.785,3.785,0,0,0,3.489.354,3.916,3.916,0,0,0,2.466-4.079Z"/></svg>