<?xml version="1.0" encoding="utf-8"?>
<!-- Generator: Adobe Illustrator 23.0.1, SVG Export Plug-In . SVG Version: 6.00 Build 0)  -->
<svg version="1.1" id="图层_1" xmlns="http://www.w3.org/2000/svg" xmlns:xlink="http://www.w3.org/1999/xlink" x="0px" y="0px"
	 viewBox="0 0 16 16" style="enable-background:new 0 0 16 16;" xml:space="preserve">
<style type="text/css">
	.st0{fill:#EC5353;}
	.st1{fill:#616B77;}
	.st2{fill:#FFFFFF;}
</style>
<g>
	<path class="st0" d="M7.5,3.015c-2.167,0-4.498,0.634-4.498,2.029v5.93c0,1.394,2.332,2.029,4.498,2.029
		c2.167,0,4.499-0.635,4.499-2.029v-5.93C11.999,3.649,9.667,3.015,7.5,3.015L7.5,3.015z M11.356,10.973
		c0,0.775-1.726,1.404-3.856,1.404c-2.13,0-3.856-0.629-3.856-1.404V9.807c0.664,0.664,2.265,1.01,3.856,1.01
		c1.591,0,3.192-0.346,3.856-1.01V10.973z M11.356,9.101h-0.001c0,0.003,0.001,0.007,0.001,0.01c0,0.771-1.726,1.395-3.856,1.395
		c-2.129,0-3.856-0.624-3.856-1.395c0-0.003,0.001-0.007,0.001-0.01H3.645V7.935C4.308,8.599,5.91,8.945,7.5,8.945
		c1.591,0,3.192-0.345,3.856-1.01V9.101z M11.356,7.228h-0.001c0,0.003,0.001,0.007,0.001,0.01c0,0.771-1.726,1.395-3.856,1.395
		c-2.129,0-3.856-0.624-3.856-1.395c0-0.003,0.001-0.007,0.001-0.01H3.645V6.156C4.487,6.779,6.03,7.072,7.5,7.072
		c1.47,0,3.014-0.293,3.856-0.916V7.228z M7.5,6.448c-2.13,0-3.856-0.629-3.856-1.404c0-0.776,1.726-1.404,3.856-1.404
		c2.129,0,3.856,0.629,3.856,1.404C11.356,5.819,9.63,6.448,7.5,6.448L7.5,6.448z M7.5,6.448"/>
	<path class="st0" d="M12.937,1c0.587,0,1.065,0.478,1.065,1.065v11.87c0,0.587-0.478,1.065-1.065,1.065H2.067
		c-0.587,0-1.065-0.478-1.065-1.065V2.065C1.002,1.478,1.48,1,2.067,1H12.937 M12.937,0H2.067c-1.14,0-2.065,0.924-2.065,2.065
		v11.87c0,1.14,0.924,2.065,2.065,2.065h10.87c1.14,0,2.065-0.925,2.065-2.065V2.065C15.002,0.924,14.078,0,12.937,0L12.937,0z"/>
</g>
</svg>
