<svg id="图层_1" data-name="图层 1" xmlns="http://www.w3.org/2000/svg" viewBox="0 0 1024 1024"><defs><style>.cls-1{fill:#46a1fd;}</style></defs><title>TDC 产品组件（多色入口icon）</title><path class="cls-1" d="M465.524,650.517,233.151,882.89.777,650.517,233.15,418.144Zm-232.4,139.448L372.577,650.517,233.152,511.092,93.7,650.54Z"/><path class="cls-1" d="M743.647,372.394,511.274,604.767,278.9,372.394,511.274,140.02Zm-232.4,139.448L650.7,372.394,511.275,232.969,371.827,372.417Z"/><path class="cls-1" d="M1023.223,650.517,790.85,882.89,558.476,650.517,790.849,418.144Zm-232.4,139.448L930.276,650.517,790.851,511.092,651.4,650.54Z"/><path class="cls-1" d="M743.3,651.606,510.925,883.98,278.551,651.606,510.925,419.233ZM510.9,791.054,650.351,651.606,510.926,512.181,371.478,651.629Z"/></svg>