<svg xmlns="http://www.w3.org/2000/svg" viewBox="0 0 16 16" fill="#51AB6E"><g><polygon points="7.4,2.8 6.6,2.8 6.6,5.3 1.6,5.3 1.6,2.8 0,2.8 0,9.4 1.6,9.4 1.6,6.8 6.6,6.8 6.6,9.4 8.2,9.4 	8.2,6.4 8.2,5.3 8.2,2.8 	"/><g><path d="M11.4,11.3h-2c-0.1,0-0.2-0.1-0.2-0.2c0-0.2,0.1-0.2,0.2-0.2h2.7V10H9.4c-0.3,0-0.5,0.1-0.6,0.3	c-0.2,0.2-0.3,0.4-0.3,0.7c0,0.3,0.1,0.5,0.2,0.7C8.9,11.9,9.1,12,9.4,12h2c0.1,0,0.2,0.1,0.2,0.2c0,0.2-0.1,0.2-0.2,0.2H8.7v0.7	h2.7c0.3,0,0.5-0.1,0.7-0.3c0.2-0.2,0.2-0.4,0.2-0.7c0-0.3-0.1-0.5-0.2-0.7C11.9,11.4,11.7,11.3,11.4,11.3L11.4,11.3z"/><polygon points="12.6,13.2 16,13.2 16,12.5 13.3,12.5 13.3,12 15.8,12 15.8,11.3 13.3,11.3 13.3,10.8 16,10.8 16,10 	12.6,10 		"/><g><path d="M3.6,11.6c0.2-0.2,0.3-0.4,0.3-0.7c0-0.2-0.1-0.4-0.2-0.6C3.5,10.1,3.3,10,3,10H0v0.7h3	c0.1,0,0.2,0.1,0.2,0.2c0,0.2-0.1,0.2-0.2,0.2H0v2h3.1c0.3,0,0.5-0.1,0.7-0.3C3.9,12.8,4,12.6,4,12.3C4,12,3.9,11.8,3.6,11.6z M3.1,12.5H0.7V12h2.3c0.1,0,0.2,0.1,0.2,0.2C3.2,12.4,3.2,12.5,3.1,12.5z"/></g><g><path d="M7.9,10.3C7.8,10.1,7.5,10,7.3,10H5.2c-0.3,0-0.5,0.1-0.6,0.3c-0.2,0.2-0.2,0.4-0.2,0.7v2.2H5v-1h2.4v1h0.7	V11C8.2,10.8,8.1,10.5,7.9,10.3z M7.4,11v0.4H5V11c0-0.2,0.1-0.2,0.2-0.2h2.1C7.4,10.8,7.4,10.9,7.4,11L7.4,11z"/></g></g><path d="M15.2,6.4c0-0.1,0-0.2,0-0.3c0-0.1,0-0.2,0-0.3l0.7-0.5C16,5.2,16,5.1,16,5l-0.7-1.1c0-0.1-0.1-0.1-0.2-0.1	l-0.8,0.3c-0.2-0.1-0.4-0.2-0.6-0.3l-0.1-0.9c0-0.1-0.1-0.1-0.2-0.1h-1.3c-0.1,0-0.1,0.1-0.2,0.1l-0.1,0.9	c-0.2,0.1-0.4,0.2-0.6,0.3l-0.8-0.3c-0.1,0-0.2,0-0.2,0.1L9.6,5c0,0.1,0,0.2,0,0.2l0.7,0.5c0,0.1,0,0.2,0,0.3c0,0.1,0,0.2,0,0.3	L9.6,6.9c-0.1,0-0.1,0.1,0,0.2l0.7,1.1c0,0.1,0.1,0.1,0.2,0.1L11.3,8c0.2,0.1,0.4,0.2,0.6,0.3l0.1,0.9c0,0.1,0.1,0.1,0.2,0.1h1.3	c0.1,0,0.1-0.1,0.2-0.1l0.1-0.9c0.2-0.1,0.4-0.2,0.6-0.3l0.8,0.3c0.1,0,0.2,0,0.2-0.1L16,7.2c0-0.1,0-0.2,0-0.2L15.2,6.4z M12.8,7.2c-0.6,0-1.2-0.5-1.2-1.2c0-0.6,0.5-1.2,1.2-1.2c0.6,0,1.2,0.5,1.2,1.2C13.9,6.7,13.4,7.2,12.8,7.2L12.8,7.2z M12.8,7.2"	/></g></svg>
