<svg xmlns="http://www.w3.org/2000/svg" viewBox="0 0 16 16" fill="#FA9C20"><g><path d="M15.1,12.9c0-0.1,0-0.2,0-0.3c0-0.1,0-0.2,0-0.3l0.7-0.6c0.1,0,0.1-0.1,0-0.2l-0.7-1.2c0-0.1-0.1-0.1-0.2-0.1	l-0.8,0.3c-0.2-0.1-0.4-0.2-0.6-0.3l-0.1-0.9c0-0.1-0.1-0.1-0.2-0.1h-1.3c-0.1,0-0.2,0.1-0.2,0.1l-0.1,0.9	c-0.2,0.1-0.4,0.2-0.6,0.3l-0.8-0.3c-0.1,0-0.2,0-0.2,0.1l-0.7,1.2c0,0.1,0,0.2,0,0.2l0.7,0.6c0,0.1,0,0.2,0,0.3c0,0.1,0,0.2,0,0.3	l-0.7,0.6c-0.1,0-0.1,0.1,0,0.2l0.7,1.2c0,0.1,0.1,0.1,0.2,0.1l0.8-0.3c0.2,0.1,0.4,0.2,0.6,0.3l0.1,0.9c0,0.1,0.1,0.1,0.2,0.1h1.3	c0.1,0,0.2-0.1,0.2-0.1l0.1-0.9c0.2-0.1,0.4-0.2,0.6-0.3l0.8,0.3c0.1,0,0.2,0,0.2-0.1l0.7-1.2c0-0.1,0-0.2,0-0.2L15.1,12.9z M12.6,13.7c-0.6,0-1.2-0.5-1.2-1.2c0-0.6,0.5-1.2,1.2-1.2c0.6,0,1.2,0.5,1.2,1.2C13.8,13.2,13.3,13.7,12.6,13.7L12.6,13.7z M12.6,13.7"/><path d="M8,0.1c-0.3,0-0.5,0.2-0.5,0.5v0.9C7.5,1.8,7.7,2,8,2c0.3,0,0.5-0.2,0.5-0.5V0.6C8.5,0.4,8.2,0.1,8,0.1z"/><path d="M8,2.9c-0.3,0-0.5,0.2-0.5,0.5V8c0,0.3,0.2,0.5,0.5,0.5c0.3,0,0.5-0.2,0.5-0.5V3.5C8.5,3.2,8.2,2.9,8,2.9z"/><path d="M6.2,9.4H0.6c-0.3,0-0.5,0.2-0.5,0.5v5.5c0,0.3,0.2,0.5,0.5,0.5h5.5c0.3,0,0.5-0.2,0.5-0.5V9.9	C6.6,9.6,6.4,9.4,6.2,9.4z M4.8,14H2v-2.8h2.8V14z"/><path d="M8,9.4c-0.3,0-0.5,0.2-0.5,0.5v5.5c0,0.3,0.2,0.5,0.5,0.5c0.1,0,0.2,0,0.3-0.1c0.1-0.1,0.1-0.2,0.1-0.3V9.9	C8.5,9.6,8.3,9.4,8,9.4z"/><path d="M0.7,7.6C0.4,7.6,0.2,7.8,0.2,8c0,0.3,0.2,0.5,0.5,0.5h0.9c0.1,0,0.2,0,0.3-0.1C1.9,8.3,2,8.1,2,8	c0-0.3-0.2-0.5-0.5-0.5H0.7z"/><g><path d="M6.8,7.6H3.4C3.1,7.6,2.9,7.8,2.9,8c0,0.3,0.2,0.5,0.5,0.5h3.4c0.1,0,0.2,0,0.3-0.1C7.2,8.3,7.2,8.1,7.2,8	C7.2,7.8,7,7.6,6.8,7.6z"/></g><path d="M15.4,0.2H9.8c-0.3,0-0.5,0.2-0.5,0.5v5.5c0,0.3,0.2,0.5,0.5,0.5h5.5c0.3,0,0.5-0.2,0.5-0.5V0.6	C15.9,0.4,15.6,0.2,15.4,0.2z M14,4.8h-2.8V2H14V4.8z"/><path d="M15.4,7.6H9.8c-0.1,0-0.2,0-0.3,0.1C9.4,7.8,9.4,7.9,9.4,8c0,0.3,0.2,0.5,0.5,0.5h5.5c0.3,0,0.5-0.2,0.5-0.5	C15.9,7.8,15.6,7.6,15.4,7.6z"/><path d="M0.6,6.6h5.5c0.3,0,0.5-0.2,0.5-0.5V0.6c0-0.3-0.2-0.5-0.5-0.5H0.6c-0.3,0-0.5,0.2-0.5,0.5v5.5	C0.1,6.5,0.3,6.6,0.6,6.6z M2,2h2.8v2.8H2V2z"/></g></svg>
