<svg xmlns="http://www.w3.org/2000/svg" viewBox="0 0 16 16" fill="#FA9C20"><g><polyline points="13.8,15.1 2.2,15.1 2.2,0.9 11.2,0.9 11.2,3.5 13.8,3.5 13.8,8.4 14.5,8.6 14.5,2.8 11.9,0.2 1.5,0.2 1.5,15.8 14.5,15.8 14.5,13.4 13.8,13"/><path d="M3.3,5.5h6.8c0.2,0,0.3-0.1,0.3-0.3s-0.1-0.3-0.3-0.3H3.3C3.1,4.9,3,5.1,3,5.2S3.1,5.5,3.3,5.5z"/><path d="M7.5,7.2H3.3C3.1,7.2,3,7.3,3,7.5s0.1,0.3,0.3,0.3h4.2c0.2,0,0.3-0.1,0.3-0.3S7.7,7.2,7.5,7.2z"/><path d="M6.7,9.4H3.3C3.1,9.4,3,9.5,3,9.7S3.1,10,3.3,10h3.4C6.9,10,7,9.9,7,9.7S6.9,9.4,6.7,9.4z"/><path d="M6.7,11.8H3.3C3.1,11.8,3,11.9,3,12s0.1,0.3,0.3,0.3h3.4C6.9,12.3,7,12.2,7,12S6.9,11.8,6.7,11.8z"/><path d="M15.9,11.8l-2.6-1.3c0.5-1.3-0.1-2.8-1.3-3.4c-0.1,0-0.1,0-0.2-0.1c-0.2-0.1-0.4-0.1-0.6-0.2 C10,6.7,8.8,7.3,8.3,8.4c-0.7,1.4-0.1,3,1.3,3.7c0.5,0.3,1.1,0.3,1.6,0.2c0.2,0,0.4-0.1,0.6-0.2c0.5-0.2,1-0.6,1.3-1.1l2.6,1.3 c0.1,0.1,0.3,0,0.3-0.1C16,12,16,11.9,15.9,11.8z M12.8,10.6c-0.2,0.5-0.6,0.8-1.1,1c-0.2,0.1-0.4,0.2-0.6,0.2 c-0.5,0.1-1,0-1.4-0.2c-1.1-0.6-1.6-1.9-1.1-3c0.5-0.9,1.5-1.4,2.5-1.2c0.2,0,0.4,0.1,0.6,0.2c0,0,0,0,0,0 C12.9,8.1,13.4,9.5,12.8,10.6z"/></g></svg>
